<svg width="820" height="267" viewBox="0 0 820 267" fill="none" xmlns="http://www.w3.org/2000/svg">
<rect width="820" height="267" rx="16" fill="#FAFAFA"/>
<path d="M24.72 40.6C24.72 37.704 25.416 35.52 26.808 34.048C28.216 32.576 30.36 31.84 33.24 31.84C36.12 31.84 38.256 32.576 39.648 34.048C41.056 35.52 41.76 37.704 41.76 40.6C41.76 43.496 41.056 45.68 39.648 47.152C38.256 48.624 36.12 49.36 33.24 49.36C30.36 49.36 28.216 48.624 26.808 47.152C25.416 45.68 24.72 43.496 24.72 40.6ZM27.72 40.6C27.72 42.6 28.168 44.112 29.064 45.136C29.976 46.144 31.368 46.648 33.24 46.648C35.128 46.648 36.52 46.144 37.416 45.136C38.312 44.112 38.76 42.6 38.76 40.6C38.76 38.584 38.312 37.072 37.416 36.064C36.52 35.04 35.128 34.528 33.24 34.528C31.32 34.528 29.92 35.04 29.04 36.064C28.16 37.088 27.72 38.6 27.72 40.6ZM47.7834 49V32.2H50.6634V49H47.7834ZM42.3834 34.84V32.2H56.0634V34.84H42.3834ZM57.6141 49V32.2H60.4941V49H57.6141ZM69.7341 49V32.2H72.6141V49H69.7341ZM58.6941 41.92V39.28H71.0541V41.92H58.6941ZM75.0047 49V32.2H77.8847V49H75.0047ZM75.9647 41.92V39.28H87.2447V41.92H75.9647ZM75.9647 34.84V32.2H88.2047V34.84H75.9647ZM75.9647 49V46.36H88.4447V49H75.9647ZM90.2391 49V32.2H93.1191V49H90.2391ZM98.0391 42.76H90.2391V40.12H97.7751C98.5591 40.12 99.2071 40.064 99.7191 39.952C100.231 39.84 100.639 39.672 100.943 39.448C101.247 39.224 101.455 38.952 101.567 38.632C101.695 38.296 101.759 37.912 101.759 37.48C101.759 37.032 101.695 36.648 101.567 36.328C101.455 35.992 101.247 35.72 100.943 35.512C100.639 35.288 100.231 35.12 99.7191 35.008C99.2071 34.896 98.5591 34.84 97.7751 34.84H90.2391V32.2H97.7991C99.0631 32.2 100.135 32.312 101.015 32.536C101.895 32.76 102.615 33.096 103.175 33.544C103.735 33.976 104.135 34.52 104.375 35.176C104.631 35.832 104.759 36.6 104.759 37.48C104.759 38.344 104.631 39.104 104.375 39.76C104.135 40.416 103.743 40.968 103.199 41.416C102.671 41.864 101.975 42.2 101.111 42.424C100.263 42.648 99.2391 42.76 98.0391 42.76ZM97.9431 40.6L104.543 49H101.015L94.4151 40.6H97.9431ZM112.861 41.992C111.901 41.8 111.021 41.592 110.221 41.368C109.421 41.128 108.733 40.816 108.157 40.432C107.581 40.048 107.133 39.568 106.813 38.992C106.493 38.416 106.333 37.696 106.333 36.832C106.333 35.056 106.917 33.784 108.085 33.016C109.269 32.232 111.125 31.84 113.653 31.84C114.757 31.84 115.749 31.944 116.629 32.152C117.509 32.344 118.253 32.664 118.861 33.112C119.469 33.56 119.933 34.152 120.253 34.888C120.589 35.608 120.757 36.496 120.757 37.552H117.997C117.997 36.896 117.869 36.376 117.613 35.992C117.373 35.592 117.037 35.288 116.605 35.08C116.189 34.872 115.701 34.744 115.141 34.696C114.597 34.632 114.021 34.6 113.413 34.6C112.661 34.6 112.021 34.648 111.493 34.744C110.981 34.824 110.565 34.952 110.245 35.128C109.925 35.304 109.693 35.52 109.549 35.776C109.405 36.032 109.333 36.328 109.333 36.664C109.333 37.016 109.429 37.32 109.621 37.576C109.813 37.816 110.101 38.024 110.485 38.2C110.885 38.376 111.381 38.528 111.973 38.656C112.565 38.784 113.253 38.912 114.037 39.04C115.141 39.216 116.117 39.432 116.965 39.688C117.829 39.928 118.557 40.248 119.149 40.648C119.741 41.048 120.189 41.552 120.493 42.16C120.797 42.752 120.949 43.488 120.949 44.368C120.949 46.128 120.341 47.4 119.125 48.184C117.925 48.968 116.037 49.36 113.461 49.36C112.341 49.36 111.325 49.256 110.413 49.048C109.517 48.856 108.757 48.536 108.133 48.088C107.509 47.64 107.029 47.056 106.693 46.336C106.357 45.6 106.189 44.704 106.189 43.648H108.949C108.949 44.32 109.077 44.856 109.333 45.256C109.605 45.64 109.957 45.936 110.389 46.144C110.837 46.352 111.349 46.488 111.925 46.552C112.501 46.616 113.101 46.648 113.725 46.648C115.149 46.648 116.205 46.48 116.893 46.144C117.597 45.808 117.949 45.272 117.949 44.536C117.949 44.008 117.781 43.6 117.445 43.312C117.125 43.024 116.717 42.8 116.221 42.64C115.725 42.48 115.173 42.36 114.565 42.28C113.973 42.184 113.405 42.088 112.861 41.992Z" fill="#262A29"/>
<line x1="24" y1="76.5" x2="796" y2="76.5" stroke="#E3E8E7"/>
<path d="M24.8 120V108.8H26.72V120H24.8ZM32.88 120V108.8H34.8V120H32.88ZM25.52 115.28V113.52H33.76V115.28H25.52ZM44.4738 116.224V116.544H42.6818V115.68C42.6818 115.264 42.6231 114.907 42.5058 114.608C42.3991 114.299 42.2444 114.053 42.0418 113.872C41.8391 113.68 41.5938 113.541 41.3058 113.456C41.0178 113.36 40.6978 113.312 40.3458 113.312C40.0044 113.312 39.6898 113.371 39.4018 113.488C39.1244 113.605 38.8791 113.776 38.6658 114C38.4524 114.213 38.2871 114.491 38.1698 114.832C38.0524 115.163 37.9938 115.552 37.9938 116C37.9938 116.501 38.0524 116.923 38.1698 117.264C38.2871 117.605 38.4524 117.883 38.6658 118.096C38.8898 118.309 39.1564 118.459 39.4658 118.544C39.7858 118.629 40.1484 118.672 40.5538 118.672C40.8631 118.672 41.1511 118.635 41.4178 118.56C41.6844 118.485 41.9084 118.384 42.0898 118.256C42.2818 118.128 42.4311 117.979 42.5378 117.808C42.6444 117.637 42.6978 117.456 42.6978 117.264L44.3778 117.28C44.3778 118.165 44.0524 118.88 43.4018 119.424C42.7511 119.968 41.8018 120.24 40.5538 120.24C39.0391 120.24 37.9138 119.883 37.1778 119.168C36.4418 118.453 36.0738 117.392 36.0738 115.984C36.0738 114.629 36.4311 113.589 37.1458 112.864C37.8711 112.128 38.9058 111.76 40.2498 111.76C41.7644 111.76 42.8471 112.139 43.4978 112.896C44.1484 113.643 44.4738 114.752 44.4738 116.224ZM36.9378 116.544V115.184H43.7378V116.544H36.9378ZM47.5931 120H45.7531V112H47.5931V120ZM52.9851 115.232H51.3051C51.3051 114.965 51.2731 114.725 51.2091 114.512C51.1451 114.299 51.0438 114.117 50.9051 113.968C50.7665 113.808 50.5905 113.685 50.3771 113.6C50.1638 113.515 49.9078 113.472 49.6091 113.472C48.9798 113.472 48.4838 113.685 48.1211 114.112C47.7691 114.528 47.5931 115.152 47.5931 115.984V116.176H46.9531V116C46.9531 115.371 47.0118 114.795 47.1291 114.272C47.2571 113.749 47.4491 113.301 47.7051 112.928C47.9611 112.555 48.2811 112.267 48.6651 112.064C49.0491 111.861 49.4971 111.76 50.0091 111.76C50.4998 111.76 50.9265 111.835 51.2891 111.984C51.6625 112.123 51.9718 112.336 52.2171 112.624C52.4731 112.901 52.6651 113.259 52.7931 113.696C52.9211 114.133 52.9851 114.645 52.9851 115.232ZM61.88 116.224V116.544H60.088V115.68C60.088 115.264 60.0293 114.907 59.912 114.608C59.8053 114.299 59.6507 114.053 59.448 113.872C59.2453 113.68 59 113.541 58.712 113.456C58.424 113.36 58.104 113.312 57.752 113.312C57.4107 113.312 57.096 113.371 56.808 113.488C56.5307 113.605 56.2853 113.776 56.072 114C55.8587 114.213 55.6933 114.491 55.576 114.832C55.4587 115.163 55.4 115.552 55.4 116C55.4 116.501 55.4587 116.923 55.576 117.264C55.6933 117.605 55.8587 117.883 56.072 118.096C56.296 118.309 56.5627 118.459 56.872 118.544C57.192 118.629 57.5547 118.672 57.96 118.672C58.2693 118.672 58.5573 118.635 58.824 118.56C59.0907 118.485 59.3147 118.384 59.496 118.256C59.688 118.128 59.8373 117.979 59.944 117.808C60.0507 117.637 60.104 117.456 60.104 117.264L61.784 117.28C61.784 118.165 61.4587 118.88 60.808 119.424C60.1573 119.968 59.208 120.24 57.96 120.24C56.4453 120.24 55.32 119.883 54.584 119.168C53.848 118.453 53.48 117.392 53.48 115.984C53.48 114.629 53.8373 113.589 54.552 112.864C55.2773 112.128 56.312 111.76 57.656 111.76C59.1707 111.76 60.2533 112.139 60.904 112.896C61.5547 113.643 61.88 114.752 61.88 116.224ZM54.344 116.544V115.184H61.144V116.544H54.344ZM67.3156 120V112H69.1556V120H67.3156ZM67.0436 109.568C67.0436 109.163 67.1343 108.864 67.3156 108.672C67.5076 108.469 67.817 108.368 68.2436 108.368C68.6596 108.368 68.9636 108.464 69.1556 108.656C69.3476 108.848 69.4436 109.152 69.4436 109.568C69.4436 109.973 69.3476 110.277 69.1556 110.48C68.9636 110.672 68.6596 110.768 68.2436 110.768C67.817 110.768 67.5076 110.672 67.3156 110.48C67.1343 110.277 67.0436 109.973 67.0436 109.568ZM70.4651 114.16C70.4651 113.733 70.5398 113.371 70.6891 113.072C70.8491 112.773 71.0838 112.528 71.3931 112.336C71.7131 112.133 72.1025 111.989 72.5611 111.904C73.0305 111.808 73.5745 111.76 74.1931 111.76C75.5798 111.76 76.5985 111.995 77.2491 112.464C77.8998 112.923 78.2251 113.675 78.2251 114.72H76.5451C76.5451 114.443 76.4865 114.219 76.3691 114.048C76.2625 113.867 76.0971 113.723 75.8731 113.616C75.6491 113.509 75.3665 113.435 75.0251 113.392C74.6945 113.339 74.3105 113.312 73.8731 113.312C73.4998 113.312 73.1905 113.339 72.9451 113.392C72.7105 113.435 72.5291 113.499 72.4011 113.584C72.2731 113.659 72.1825 113.744 72.1291 113.84C72.0865 113.936 72.0651 114.032 72.0651 114.128C72.0651 114.245 72.1078 114.352 72.1931 114.448C72.2891 114.544 72.4331 114.635 72.6251 114.72C72.8171 114.805 73.0678 114.891 73.3771 114.976C73.6971 115.061 74.0811 115.141 74.5291 115.216C75.0945 115.312 75.6118 115.413 76.0811 115.52C76.5505 115.616 76.9505 115.755 77.2811 115.936C77.6118 116.107 77.8678 116.336 78.0491 116.624C78.2305 116.912 78.3211 117.301 78.3211 117.792C78.3211 118.677 78.0065 119.307 77.3771 119.68C76.7478 120.053 75.8305 120.24 74.6251 120.24C73.1638 120.24 72.0971 120.011 71.4251 119.552C70.7638 119.083 70.4331 118.325 70.4331 117.28H72.1131C72.1131 117.536 72.1771 117.755 72.3051 117.936C72.4438 118.117 72.6305 118.261 72.8651 118.368C73.1105 118.475 73.3985 118.555 73.7291 118.608C74.0705 118.651 74.4491 118.672 74.8651 118.672C75.2065 118.672 75.4945 118.656 75.7291 118.624C75.9638 118.581 76.1558 118.523 76.3051 118.448C76.4545 118.373 76.5611 118.283 76.6251 118.176C76.6891 118.069 76.7211 117.957 76.7211 117.84C76.7211 117.659 76.6678 117.515 76.5611 117.408C76.4545 117.301 76.2891 117.216 76.0651 117.152C75.8518 117.088 75.5851 117.035 75.2651 116.992C74.9451 116.939 74.5718 116.875 74.1451 116.8C73.7078 116.736 73.2705 116.651 72.8331 116.544C72.3958 116.437 72.0011 116.288 71.6491 116.096C71.2971 115.904 71.0091 115.653 70.7851 115.344C70.5718 115.035 70.4651 114.64 70.4651 114.16ZM85.1931 117.152V112L85.8331 108.8H87.0331V116.912C87.0331 117.115 87.0438 117.317 87.0651 117.52C87.0971 117.712 87.1505 117.883 87.2251 118.032C87.2998 118.171 87.4118 118.288 87.5611 118.384C87.7105 118.469 87.9078 118.512 88.1531 118.512C88.3345 118.512 88.4998 118.491 88.6491 118.448C88.8091 118.395 88.9425 118.309 89.0491 118.192C89.1665 118.075 89.2571 117.915 89.3211 117.712C89.3851 117.509 89.4171 117.259 89.4171 116.96H91.0971C91.0971 117.579 91.0278 118.101 90.8891 118.528C90.7505 118.944 90.5531 119.28 90.2971 119.536C90.0411 119.792 89.7265 119.973 89.3531 120.08C88.9798 120.187 88.5585 120.24 88.0891 120.24C87.6198 120.24 87.2038 120.181 86.8411 120.064C86.4785 119.947 86.1745 119.765 85.9291 119.52C85.6838 119.264 85.4971 118.944 85.3691 118.56C85.2518 118.165 85.1931 117.696 85.1931 117.152ZM83.2731 112H91.0331V113.68H83.2731V112ZM94.1088 120H92.2688V108H94.1088V120ZM100.397 120H98.5568V115.696C98.5568 115.355 98.5248 115.051 98.4608 114.784C98.3968 114.507 98.2848 114.272 98.1248 114.08C97.9754 113.888 97.7621 113.739 97.4848 113.632C97.2074 113.525 96.8554 113.472 96.4288 113.472C95.6714 113.472 95.0954 113.685 94.7008 114.112C94.3061 114.528 94.1088 115.152 94.1088 115.984V116.176H93.4688V116C93.4688 115.371 93.5274 114.795 93.6448 114.272C93.7621 113.749 93.9541 113.301 94.2208 112.928C94.4981 112.555 94.8554 112.267 95.2928 112.064C95.7408 111.861 96.2901 111.76 96.9408 111.76C97.5168 111.76 98.0181 111.829 98.4448 111.968C98.8821 112.107 99.2448 112.325 99.5328 112.624C99.8208 112.923 100.034 113.312 100.173 113.792C100.322 114.272 100.397 114.853 100.397 115.536V120ZM109.911 116.224V116.544H108.119V115.68C108.119 115.264 108.061 114.907 107.943 114.608C107.837 114.299 107.682 114.053 107.479 113.872C107.277 113.68 107.031 113.541 106.743 113.456C106.455 113.36 106.135 113.312 105.783 113.312C105.442 113.312 105.127 113.371 104.839 113.488C104.562 113.605 104.317 113.776 104.103 114C103.89 114.213 103.725 114.491 103.607 114.832C103.49 115.163 103.431 115.552 103.431 116C103.431 116.501 103.49 116.923 103.607 117.264C103.725 117.605 103.89 117.883 104.103 118.096C104.327 118.309 104.594 118.459 104.903 118.544C105.223 118.629 105.586 118.672 105.991 118.672C106.301 118.672 106.589 118.635 106.855 118.56C107.122 118.485 107.346 118.384 107.527 118.256C107.719 118.128 107.869 117.979 107.975 117.808C108.082 117.637 108.135 117.456 108.135 117.264L109.815 117.28C109.815 118.165 109.49 118.88 108.839 119.424C108.189 119.968 107.239 120.24 105.991 120.24C104.477 120.24 103.351 119.883 102.615 119.168C101.879 118.453 101.511 117.392 101.511 115.984C101.511 114.629 101.869 113.589 102.583 112.864C103.309 112.128 104.343 111.76 105.687 111.76C107.202 111.76 108.285 112.139 108.935 112.896C109.586 113.643 109.911 114.752 109.911 116.224ZM102.375 116.544V115.184H109.175V116.544H102.375ZM119.379 111.76C120.008 111.76 120.563 111.851 121.043 112.032C121.534 112.203 121.944 112.448 122.275 112.768C122.606 113.077 122.851 113.44 123.011 113.856C123.182 114.272 123.267 114.72 123.267 115.2H121.587C121.587 114.944 121.539 114.715 121.443 114.512C121.358 114.299 121.219 114.117 121.027 113.968C120.835 113.808 120.6 113.685 120.323 113.6C120.046 113.515 119.726 113.472 119.363 113.472C119 113.472 118.67 113.515 118.371 113.6C118.083 113.685 117.832 113.829 117.619 114.032C117.406 114.235 117.24 114.496 117.123 114.816C117.006 115.125 116.947 115.509 116.947 115.968C116.947 116.448 117.011 116.853 117.139 117.184C117.267 117.504 117.443 117.765 117.667 117.968C117.902 118.16 118.168 118.299 118.467 118.384C118.776 118.469 119.107 118.512 119.459 118.512C119.843 118.512 120.168 118.469 120.435 118.384C120.712 118.299 120.936 118.181 121.107 118.032C121.288 117.883 121.422 117.701 121.507 117.488C121.603 117.275 121.651 117.045 121.651 116.8H123.331C123.331 117.28 123.251 117.728 123.091 118.144C122.931 118.56 122.691 118.928 122.371 119.248C122.051 119.557 121.646 119.803 121.155 119.984C120.664 120.155 120.083 120.24 119.411 120.24C117.982 120.24 116.894 119.883 116.147 119.168C115.4 118.453 115.027 117.397 115.027 116C115.027 114.592 115.374 113.536 116.067 112.832C116.76 112.117 117.864 111.76 119.379 111.76ZM130.344 117.2H130.568C130.568 117.605 130.542 117.995 130.488 118.368C130.435 118.731 130.307 119.051 130.104 119.328C129.902 119.605 129.592 119.829 129.176 120C128.771 120.16 128.211 120.24 127.496 120.24C126.984 120.24 126.515 120.203 126.088 120.128C125.662 120.053 125.288 119.92 124.968 119.728C124.659 119.536 124.414 119.28 124.232 118.96C124.062 118.629 123.976 118.219 123.976 117.728C123.976 117.323 124.051 116.976 124.2 116.688C124.36 116.4 124.59 116.16 124.888 115.968C125.187 115.765 125.555 115.605 125.992 115.488C126.43 115.36 126.931 115.269 127.496 115.216L130.856 114.88L131.016 116.192L127.768 116.512C127.512 116.544 127.267 116.587 127.032 116.64C126.808 116.693 126.611 116.768 126.44 116.864C126.28 116.949 126.147 117.061 126.04 117.2C125.944 117.339 125.896 117.504 125.896 117.696C125.896 117.845 125.928 117.984 125.992 118.112C126.056 118.229 126.163 118.331 126.312 118.416C126.462 118.501 126.654 118.565 126.888 118.608C127.123 118.651 127.411 118.672 127.752 118.672C128.232 118.672 128.638 118.624 128.968 118.528C129.299 118.432 129.566 118.309 129.768 118.16C129.971 118.011 130.115 117.851 130.2 117.68C130.296 117.509 130.344 117.349 130.344 117.2ZM130.328 114.896C130.328 114.533 130.259 114.251 130.12 114.048C129.982 113.835 129.806 113.675 129.592 113.568C129.379 113.461 129.144 113.392 128.888 113.36C128.632 113.328 128.398 113.312 128.184 113.312C127.95 113.312 127.71 113.328 127.464 113.36C127.23 113.381 127.006 113.44 126.792 113.536C126.59 113.632 126.424 113.776 126.296 113.968C126.168 114.16 126.104 114.427 126.104 114.768H124.424C124.424 114.224 124.51 113.765 124.68 113.392C124.851 113.008 125.102 112.693 125.432 112.448C125.763 112.203 126.158 112.027 126.616 111.92C127.086 111.813 127.608 111.76 128.184 111.76C128.856 111.76 129.438 111.819 129.928 111.936C130.43 112.043 130.846 112.229 131.176 112.496C131.507 112.763 131.752 113.115 131.912 113.552C132.083 113.989 132.168 114.528 132.168 115.168V120H130.328V114.896ZM135.453 123.2H133.613V112H135.453V123.2ZM141.741 116C141.741 116.693 141.639 117.307 141.437 117.84C141.245 118.363 140.978 118.805 140.637 119.168C140.295 119.52 139.901 119.787 139.453 119.968C139.005 120.149 138.53 120.24 138.029 120.24C137.399 120.24 136.882 120.128 136.477 119.904C136.082 119.669 135.773 119.36 135.549 118.976C135.325 118.592 135.17 118.144 135.085 117.632C134.999 117.12 134.957 116.576 134.957 116C134.957 115.36 134.999 114.779 135.085 114.256C135.181 113.733 135.346 113.291 135.581 112.928C135.815 112.555 136.13 112.267 136.525 112.064C136.93 111.861 137.453 111.76 138.093 111.76C138.637 111.76 139.133 111.851 139.581 112.032C140.029 112.213 140.413 112.485 140.733 112.848C141.053 113.2 141.298 113.643 141.469 114.176C141.65 114.699 141.741 115.307 141.741 116ZM139.821 115.984C139.821 115.152 139.65 114.528 139.309 114.112C138.978 113.685 138.429 113.472 137.661 113.472C136.935 113.472 136.386 113.685 136.013 114.112C135.639 114.528 135.453 115.152 135.453 115.984C135.453 116.816 135.639 117.445 136.013 117.872C136.386 118.299 136.935 118.512 137.661 118.512C137.981 118.512 138.274 118.459 138.541 118.352C138.807 118.245 139.037 118.085 139.229 117.872C139.421 117.659 139.565 117.397 139.661 117.088C139.767 116.768 139.821 116.4 139.821 115.984ZM144.459 117.152V112L145.099 108.8H146.299V116.912C146.299 117.115 146.309 117.317 146.331 117.52C146.363 117.712 146.416 117.883 146.491 118.032C146.565 118.171 146.677 118.288 146.827 118.384C146.976 118.469 147.173 118.512 147.419 118.512C147.6 118.512 147.765 118.491 147.915 118.448C148.075 118.395 148.208 118.309 148.315 118.192C148.432 118.075 148.523 117.915 148.587 117.712C148.651 117.509 148.683 117.259 148.683 116.96H150.363C150.363 117.579 150.293 118.101 150.155 118.528C150.016 118.944 149.819 119.28 149.563 119.536C149.307 119.792 148.992 119.973 148.619 120.08C148.245 120.187 147.824 120.24 147.355 120.24C146.885 120.24 146.469 120.181 146.107 120.064C145.744 119.947 145.44 119.765 145.195 119.52C144.949 119.264 144.763 118.944 144.635 118.56C144.517 118.165 144.459 117.696 144.459 117.152ZM142.539 112H150.299V113.68H142.539V112ZM151.534 120V112H153.374V120H151.534ZM151.262 109.568C151.262 109.163 151.353 108.864 151.534 108.672C151.726 108.469 152.036 108.368 152.462 108.368C152.878 108.368 153.182 108.464 153.374 108.656C153.566 108.848 153.662 109.152 153.662 109.568C153.662 109.973 153.566 110.277 153.374 110.48C153.182 110.672 152.878 110.768 152.462 110.768C152.036 110.768 151.726 110.672 151.534 110.48C151.353 110.277 151.262 109.973 151.262 109.568ZM154.652 116C154.652 114.603 155.015 113.547 155.74 112.832C156.476 112.117 157.607 111.76 159.132 111.76C160.647 111.76 161.772 112.117 162.508 112.832C163.244 113.547 163.612 114.603 163.612 116C163.612 117.397 163.244 118.453 162.508 119.168C161.772 119.883 160.647 120.24 159.132 120.24C157.607 120.24 156.476 119.883 155.74 119.168C155.015 118.453 154.652 117.397 154.652 116ZM156.572 116C156.572 116.832 156.78 117.461 157.196 117.888C157.623 118.304 158.268 118.512 159.132 118.512C159.996 118.512 160.636 118.304 161.052 117.888C161.479 117.461 161.692 116.832 161.692 116C161.692 115.168 161.479 114.539 161.052 114.112C160.636 113.685 159.996 113.472 159.132 113.472C158.236 113.472 157.585 113.685 157.18 114.112C156.775 114.539 156.572 115.168 156.572 116ZM173.022 120H171.182V115.696C171.182 115.355 171.15 115.051 171.086 114.784C171.022 114.507 170.91 114.272 170.75 114.08C170.6 113.888 170.387 113.739 170.11 113.632C169.832 113.525 169.48 113.472 169.054 113.472C168.296 113.472 167.72 113.685 167.326 114.112C166.931 114.528 166.734 115.152 166.734 115.984V116.176H166.094V116C166.094 115.371 166.152 114.795 166.27 114.272C166.387 113.749 166.579 113.301 166.846 112.928C167.123 112.555 167.48 112.267 167.918 112.064C168.366 111.861 168.915 111.76 169.566 111.76C170.142 111.76 170.643 111.829 171.07 111.968C171.507 112.107 171.87 112.325 172.158 112.624C172.446 112.923 172.659 113.312 172.798 113.792C172.947 114.272 173.022 114.853 173.022 115.536V120ZM166.734 120H164.894V112H166.734V120ZM180.053 117.152V112L180.693 108.8H181.893V116.912C181.893 117.115 181.903 117.317 181.924 117.52C181.957 117.712 182.01 117.883 182.085 118.032C182.159 118.171 182.271 118.288 182.421 118.384C182.57 118.469 182.767 118.512 183.013 118.512C183.194 118.512 183.359 118.491 183.509 118.448C183.669 118.395 183.802 118.309 183.909 118.192C184.026 118.075 184.117 117.915 184.181 117.712C184.245 117.509 184.277 117.259 184.277 116.96H185.957C185.957 117.579 185.887 118.101 185.749 118.528C185.61 118.944 185.413 119.28 185.157 119.536C184.901 119.792 184.586 119.973 184.213 120.08C183.839 120.187 183.418 120.24 182.949 120.24C182.479 120.24 182.063 120.181 181.701 120.064C181.338 119.947 181.034 119.765 180.789 119.52C180.543 119.264 180.357 118.944 180.229 118.56C180.111 118.165 180.053 117.696 180.053 117.152ZM178.133 112H185.892V113.68H178.133V112ZM195.208 116.224V116.544H193.416V115.68C193.416 115.264 193.357 114.907 193.24 114.608C193.133 114.299 192.979 114.053 192.776 113.872C192.573 113.68 192.328 113.541 192.04 113.456C191.752 113.36 191.432 113.312 191.08 113.312C190.739 113.312 190.424 113.371 190.136 113.488C189.859 113.605 189.613 113.776 189.4 114C189.187 114.213 189.021 114.491 188.904 114.832C188.787 115.163 188.728 115.552 188.728 116C188.728 116.501 188.787 116.923 188.904 117.264C189.021 117.605 189.187 117.883 189.4 118.096C189.624 118.309 189.891 118.459 190.2 118.544C190.52 118.629 190.883 118.672 191.288 118.672C191.597 118.672 191.885 118.635 192.152 118.56C192.419 118.485 192.643 118.384 192.824 118.256C193.016 118.128 193.165 117.979 193.272 117.808C193.379 117.637 193.432 117.456 193.432 117.264L195.112 117.28C195.112 118.165 194.787 118.88 194.136 119.424C193.485 119.968 192.536 120.24 191.288 120.24C189.773 120.24 188.648 119.883 187.912 119.168C187.176 118.453 186.808 117.392 186.808 115.984C186.808 114.629 187.165 113.589 187.88 112.864C188.605 112.128 189.64 111.76 190.984 111.76C192.499 111.76 193.581 112.139 194.232 112.896C194.883 113.643 195.208 114.752 195.208 116.224ZM187.672 116.544V115.184H194.472V116.544H187.672ZM201.352 116L204.76 120H202.504L199.096 116L202.504 112H204.76L201.352 116ZM199.096 116L195.688 112H197.944L201.352 116L197.944 120H195.688L199.096 116ZM207.006 117.152V112L207.646 108.8H208.846V116.912C208.846 117.115 208.856 117.317 208.878 117.52C208.91 117.712 208.963 117.883 209.038 118.032C209.112 118.171 209.224 118.288 209.374 118.384C209.523 118.469 209.72 118.512 209.966 118.512C210.147 118.512 210.312 118.491 210.462 118.448C210.622 118.395 210.755 118.309 210.862 118.192C210.979 118.075 211.07 117.915 211.134 117.712C211.198 117.509 211.23 117.259 211.23 116.96H212.91C212.91 117.579 212.84 118.101 212.702 118.528C212.563 118.944 212.366 119.28 212.11 119.536C211.854 119.792 211.539 119.973 211.166 120.08C210.792 120.187 210.371 120.24 209.902 120.24C209.432 120.24 209.016 120.181 208.654 120.064C208.291 119.947 207.987 119.765 207.742 119.52C207.496 119.264 207.31 118.944 207.182 118.56C207.064 118.165 207.006 117.696 207.006 117.152ZM205.086 112H212.846V113.68H205.086V112ZM213.761 119.12C213.761 118.747 213.847 118.469 214.017 118.288C214.199 118.096 214.487 118 214.881 118C215.276 118 215.559 118.096 215.729 118.288C215.911 118.469 216.001 118.747 216.001 119.12C216.001 119.493 215.911 119.776 215.729 119.968C215.559 120.149 215.276 120.24 214.881 120.24C214.487 120.24 214.199 120.149 214.017 119.968C213.847 119.776 213.761 119.493 213.761 119.12Z" fill="#1D1D1D"/>
<path d="M30.416 153.24C28.4 153.24 26.9067 152.76 25.936 151.8C24.9653 150.84 24.48 149.368 24.48 147.384C24.48 145.4 24.9333 143.933 25.84 142.984C26.7467 142.035 28.1387 141.56 30.016 141.56C30.8907 141.56 31.6587 141.635 32.32 141.784C32.992 141.933 33.5573 142.173 34.016 142.504C34.4747 142.835 34.8213 143.261 35.056 143.784C35.3013 144.307 35.424 144.941 35.424 145.688H33.584C33.584 145.197 33.4773 144.803 33.264 144.504C33.0507 144.195 32.7733 143.955 32.432 143.784C32.0907 143.613 31.7013 143.501 31.264 143.448C30.8373 143.384 30.4053 143.352 29.968 143.352C29.3387 143.352 28.8 143.432 28.352 143.592C27.9147 143.741 27.5573 143.981 27.28 144.312C27.0027 144.643 26.8 145.059 26.672 145.56C26.544 146.061 26.48 146.669 26.48 147.384C26.48 148.792 26.8053 149.821 27.456 150.472C28.1173 151.112 29.1253 151.432 30.48 151.432C30.8533 151.432 31.232 151.411 31.616 151.368C32 151.315 32.3413 151.213 32.64 151.064C32.9387 150.904 33.1787 150.685 33.36 150.408C33.552 150.12 33.648 149.736 33.648 149.256H35.488C35.488 150.003 35.3653 150.632 35.12 151.144C34.8853 151.645 34.544 152.051 34.096 152.36C33.6587 152.669 33.1253 152.893 32.496 153.032C31.8667 153.171 31.1733 153.24 30.416 153.24ZM35.4925 153L40.0845 141.8H42.1645L37.5725 153H35.4925ZM37.3645 151.064V149.304H44.8845V151.064H37.3645ZM46.7565 153H44.6765L40.0845 141.8H42.1645L46.7565 153ZM47.6906 153V141.8H49.6106V153H47.6906ZM52.7306 149.4H47.6906V147.64H52.7146C53.2373 147.64 53.6693 147.597 54.0106 147.512C54.352 147.427 54.624 147.299 54.8266 147.128C55.0293 146.957 55.168 146.744 55.2426 146.488C55.328 146.232 55.3706 145.933 55.3706 145.592C55.3706 145.251 55.328 144.952 55.2426 144.696C55.168 144.44 55.0293 144.232 54.8266 144.072C54.624 143.901 54.352 143.773 54.0106 143.688C53.6693 143.603 53.2373 143.56 52.7146 143.56H47.6906V141.8H52.7306C53.5733 141.8 54.288 141.88 54.8746 142.04C55.4613 142.2 55.9413 142.44 56.3146 142.76C56.688 143.08 56.9546 143.475 57.1146 143.944C57.2853 144.413 57.3706 144.963 57.3706 145.592C57.3706 146.221 57.2853 146.776 57.1146 147.256C56.9546 147.725 56.688 148.12 56.3146 148.44C55.952 148.76 55.472 149 54.8746 149.16C54.288 149.32 53.5733 149.4 52.7306 149.4ZM61.6838 153V141.8H63.6038V153H61.6838ZM58.0838 143.56V141.8H67.2038V143.56H58.0838ZM68.2375 153V141.8H70.1575V153H68.2375ZM71.4331 147.4C71.4331 145.469 71.8971 144.013 72.8251 143.032C73.7638 142.051 75.1931 141.56 77.1131 141.56C79.0331 141.56 80.4571 142.051 81.3851 143.032C82.3238 144.013 82.7931 145.469 82.7931 147.4C82.7931 149.331 82.3238 150.787 81.3851 151.768C80.4571 152.749 79.0331 153.24 77.1131 153.24C75.1931 153.24 73.7638 152.749 72.8251 151.768C71.8971 150.787 71.4331 149.331 71.4331 147.4ZM73.4331 147.4C73.4331 148.733 73.7318 149.741 74.3291 150.424C74.9371 151.096 75.8651 151.432 77.1131 151.432C78.3718 151.432 79.2998 151.096 79.8971 150.424C80.4945 149.741 80.7931 148.733 80.7931 147.4C80.7931 146.056 80.4945 145.048 79.8971 144.376C79.2998 143.693 78.3718 143.352 77.1131 143.352C75.8331 143.352 74.8998 143.693 74.3131 144.376C73.7265 145.059 73.4331 146.067 73.4331 147.4ZM84.0656 153V141.8H85.9856V153H84.0656ZM91.8896 153V141.8H93.8096V153H91.8896ZM84.6576 143.128L85.9856 141.8L92.8176 151.096L91.8896 153L84.6576 143.128ZM102.606 153V141.8H104.526V153H102.606ZM99.0056 143.56V141.8H108.126V143.56H99.0056ZM109.159 153V141.8H111.079V153H109.159ZM109.799 148.28V146.52H117.319V148.28H109.799ZM109.799 143.56V141.8H117.959V143.56H109.799ZM109.799 153V151.24H118.119V153H109.799ZM125.332 147.4L129.764 153H127.364L124.148 148.968L120.916 153H118.516L122.948 147.4L118.516 141.8H120.916L124.148 145.832L127.364 141.8H129.764L125.332 147.4ZM133.606 153V141.8H135.526V153H133.606ZM130.006 143.56V141.8H139.126V143.56H130.006Z" fill="#797979"/>
<path d="M158.72 153V141.8H160.64V153H158.72ZM156.32 143.56V141.8H160.64V143.56H156.32ZM161.934 151.72V151.144C161.934 150.504 162.014 149.976 162.174 149.56C162.344 149.133 162.59 148.771 162.91 148.472C163.24 148.163 163.646 147.901 164.126 147.688C164.606 147.475 165.15 147.261 165.758 147.048C166.248 146.888 166.68 146.739 167.054 146.6C167.438 146.451 167.752 146.301 167.998 146.152C168.254 145.992 168.446 145.816 168.574 145.624C168.712 145.432 168.782 145.197 168.782 144.92C168.782 144.685 168.739 144.472 168.654 144.28C168.579 144.088 168.451 143.923 168.27 143.784C168.099 143.645 167.87 143.539 167.582 143.464C167.304 143.389 166.958 143.352 166.542 143.352C166.19 143.352 165.848 143.373 165.518 143.416C165.198 143.459 164.91 143.549 164.654 143.688C164.408 143.827 164.211 144.029 164.062 144.296C163.912 144.563 163.838 144.92 163.838 145.368H161.998C161.998 144.664 162.099 144.072 162.302 143.592C162.504 143.101 162.798 142.707 163.182 142.408C163.566 142.109 164.035 141.896 164.59 141.768C165.155 141.629 165.784 141.56 166.478 141.56C167.95 141.56 169.032 141.843 169.726 142.408C170.43 142.973 170.782 143.821 170.782 144.952C170.782 145.496 170.686 145.955 170.494 146.328C170.302 146.701 170.03 147.027 169.678 147.304C169.326 147.581 168.899 147.827 168.398 148.04C167.896 148.243 167.331 148.456 166.702 148.68C166.36 148.797 166.014 148.92 165.661 149.048C165.31 149.176 164.99 149.331 164.702 149.512C164.414 149.683 164.179 149.901 163.998 150.168C163.816 150.424 163.726 150.749 163.726 151.144V151.72H161.934ZM161.934 151.24H170.734V153H161.934V151.24ZM172.066 153V141.8H173.986V153H172.066ZM177.106 149.4H172.066V147.64H177.09C177.612 147.64 178.044 147.597 178.386 147.512C178.727 147.427 178.999 147.299 179.202 147.128C179.404 146.957 179.543 146.744 179.618 146.488C179.703 146.232 179.746 145.933 179.746 145.592C179.746 145.251 179.703 144.952 179.618 144.696C179.543 144.44 179.404 144.232 179.202 144.072C178.999 143.901 178.727 143.773 178.386 143.688C178.044 143.603 177.612 143.56 177.09 143.56H172.066V141.8H177.106C177.948 141.8 178.663 141.88 179.25 142.04C179.836 142.2 180.316 142.44 180.69 142.76C181.063 143.08 181.33 143.475 181.49 143.944C181.66 144.413 181.746 144.963 181.746 145.592C181.746 146.221 181.66 146.776 181.49 147.256C181.33 147.725 181.063 148.12 180.69 148.44C180.327 148.76 179.847 149 179.25 149.16C178.663 149.32 177.948 149.4 177.106 149.4ZM188.66 147.4L193.092 153H190.692L187.476 148.968L184.244 153H181.844L186.276 147.4L181.844 141.8H184.244L187.476 145.832L190.692 141.8H193.092L188.66 147.4Z" fill="#797979"/>
<path d="M212.72 153V141.8H214.64V153H212.72ZM210.32 143.56V141.8H214.64V143.56H210.32ZM218.83 146.52H220.094C220.638 146.52 221.075 146.472 221.406 146.376C221.736 146.269 221.987 146.141 222.158 145.992C222.328 145.832 222.44 145.656 222.494 145.464C222.547 145.261 222.574 145.064 222.574 144.872C222.574 144.36 222.387 143.981 222.014 143.736C221.64 143.48 221.102 143.352 220.398 143.352C220.035 143.352 219.699 143.373 219.39 143.416C219.08 143.459 218.814 143.549 218.59 143.688C218.376 143.827 218.206 144.029 218.078 144.296C217.96 144.563 217.902 144.92 217.902 145.368H216.062C216.062 144.664 216.158 144.072 216.35 143.592C216.542 143.101 216.819 142.707 217.182 142.408C217.544 142.109 217.987 141.896 218.51 141.768C219.043 141.629 219.651 141.56 220.334 141.56C221.784 141.56 222.851 141.832 223.534 142.376C224.227 142.92 224.574 143.736 224.574 144.824C224.574 145.379 224.467 145.869 224.253 146.296C224.04 146.723 223.736 147.085 223.342 147.384C222.947 147.672 222.467 147.896 221.902 148.056C221.336 148.205 220.696 148.28 219.982 148.28H218.83V146.52ZM218.83 148.28V146.52H220.014C220.611 146.52 221.192 146.579 221.758 146.696C222.334 146.803 222.846 146.989 223.294 147.256C223.742 147.512 224.099 147.848 224.366 148.264C224.643 148.68 224.782 149.197 224.782 149.816C224.782 151.011 224.419 151.88 223.694 152.424C222.979 152.968 221.832 153.24 220.254 153.24C219.571 153.24 218.952 153.171 218.398 153.032C217.843 152.904 217.368 152.691 216.974 152.392C216.59 152.093 216.291 151.704 216.078 151.224C215.864 150.733 215.758 150.136 215.758 149.432H217.598C217.598 149.88 217.667 150.237 217.806 150.504C217.955 150.76 218.152 150.957 218.398 151.096C218.643 151.235 218.931 151.325 219.262 151.368C219.592 151.411 219.95 151.432 220.334 151.432C220.728 151.432 221.075 151.411 221.374 151.368C221.683 151.325 221.939 151.245 222.142 151.128C222.355 151 222.515 150.84 222.622 150.648C222.728 150.445 222.782 150.189 222.782 149.88C222.782 149.688 222.744 149.501 222.67 149.32C222.595 149.128 222.456 148.957 222.254 148.808C222.062 148.648 221.795 148.52 221.454 148.424C221.112 148.328 220.67 148.28 220.126 148.28H218.83ZM225.746 147.4C225.746 145.469 226.119 144.013 226.866 143.032C227.623 142.051 228.786 141.56 230.354 141.56C231.911 141.56 233.063 142.051 233.81 143.032C234.567 144.013 234.946 145.469 234.946 147.4C234.946 149.331 234.567 150.787 233.81 151.768C233.063 152.749 231.911 153.24 230.354 153.24C228.786 153.24 227.623 152.749 226.866 151.768C226.119 150.787 225.746 149.331 225.746 147.4ZM227.746 147.4C227.746 148.744 227.959 149.752 228.386 150.424C228.812 151.096 229.468 151.432 230.354 151.432C231.239 151.432 231.89 151.096 232.306 150.424C232.732 149.752 232.946 148.739 232.946 147.384C232.946 146.051 232.732 145.048 232.306 144.376C231.89 143.693 231.239 143.352 230.354 143.352C229.863 143.352 229.452 143.437 229.122 143.608C228.802 143.779 228.535 144.035 228.322 144.376C228.119 144.707 227.97 145.128 227.874 145.64C227.788 146.141 227.746 146.728 227.746 147.4ZM237.854 153L244.206 141.8H245.582L239.23 153H237.854ZM235.902 144.504C235.902 143.533 236.105 142.803 236.51 142.312C236.915 141.811 237.534 141.56 238.366 141.56C239.198 141.56 239.811 141.811 240.206 142.312C240.611 142.803 240.814 143.533 240.814 144.504C240.814 145.496 240.611 146.243 240.206 146.744C239.811 147.235 239.198 147.48 238.366 147.48C237.534 147.48 236.915 147.235 236.51 146.744C236.105 146.243 235.902 145.496 235.902 144.504ZM237.182 144.504C237.182 145.101 237.278 145.549 237.47 145.848C237.662 146.136 237.961 146.28 238.366 146.28C238.761 146.28 239.054 146.136 239.246 145.848C239.438 145.549 239.534 145.101 239.534 144.504C239.534 143.928 239.438 143.496 239.246 143.208C239.054 142.909 238.761 142.76 238.366 142.76C237.939 142.76 237.635 142.909 237.454 143.208C237.273 143.496 237.182 143.928 237.182 144.504ZM242.878 150.264C242.878 149.293 243.081 148.563 243.486 148.072C243.891 147.571 244.51 147.32 245.342 147.32C246.174 147.32 246.787 147.571 247.182 148.072C247.587 148.563 247.79 149.293 247.79 150.264C247.79 151.256 247.587 152.003 247.182 152.504C246.787 152.995 246.174 153.24 245.342 153.24C244.51 153.24 243.891 152.995 243.486 152.504C243.081 152.003 242.878 151.256 242.878 150.264ZM244.158 150.264C244.158 150.861 244.254 151.309 244.446 151.608C244.638 151.896 244.937 152.04 245.342 152.04C245.737 152.04 246.03 151.896 246.222 151.608C246.414 151.309 246.51 150.861 246.51 150.264C246.51 149.688 246.414 149.256 246.222 148.968C246.03 148.669 245.737 148.52 245.342 148.52C244.915 148.52 244.611 148.669 244.43 148.968C244.249 149.256 244.158 149.688 244.158 150.264Z" fill="#797979"/>
<path d="M270.536 153.24C269.736 153.24 269.021 153.123 268.392 152.888C267.773 152.643 267.245 152.28 266.808 151.8C266.381 151.309 266.051 150.696 265.816 149.96C265.592 149.224 265.48 148.365 265.48 147.384C265.48 145.4 265.933 143.933 266.84 142.984C267.747 142.035 269.144 141.56 271.032 141.56C271.896 141.56 272.659 141.635 273.32 141.784C273.992 141.933 274.557 142.173 275.016 142.504C275.475 142.835 275.821 143.261 276.056 143.784C276.301 144.307 276.424 144.941 276.424 145.688H274.584C274.584 145.197 274.477 144.803 274.264 144.504C274.051 144.195 273.773 143.955 273.432 143.784C273.091 143.613 272.701 143.501 272.264 143.448C271.837 143.384 271.405 143.352 270.968 143.352C270.339 143.352 269.8 143.432 269.352 143.592C268.915 143.741 268.557 143.981 268.28 144.312C268.003 144.643 267.8 145.059 267.672 145.56C267.544 146.061 267.48 146.664 267.48 147.368C267.48 148.083 267.56 148.696 267.72 149.208C267.88 149.72 268.104 150.141 268.392 150.472C268.691 150.803 269.053 151.048 269.48 151.208C269.917 151.357 270.408 151.432 270.952 151.432C271.443 151.432 271.88 151.32 272.264 151.096C272.659 150.872 273.011 150.579 273.32 150.216C273.629 149.853 273.907 149.448 274.152 149C274.408 148.541 274.632 148.088 274.824 147.64L275.896 147.944C275.661 148.563 275.379 149.187 275.048 149.816C274.717 150.445 274.328 151.016 273.88 151.528C273.443 152.029 272.947 152.44 272.392 152.76C271.837 153.08 271.219 153.24 270.536 153.24ZM274.664 153V148.2H276.504V153H274.664ZM270.984 148.808V147.128H276.504V148.808H270.984ZM279.781 153H277.941V141H279.781V153ZM287.266 150.2H287.49C287.49 150.605 287.463 150.995 287.41 151.368C287.357 151.731 287.229 152.051 287.026 152.328C286.823 152.605 286.514 152.829 286.098 153C285.693 153.16 285.133 153.24 284.418 153.24C283.906 153.24 283.437 153.203 283.01 153.128C282.583 153.053 282.21 152.92 281.89 152.728C281.581 152.536 281.335 152.28 281.154 151.96C280.983 151.629 280.898 151.219 280.898 150.728C280.898 150.323 280.973 149.976 281.122 149.688C281.282 149.4 281.511 149.16 281.81 148.968C282.109 148.765 282.477 148.605 282.914 148.488C283.351 148.36 283.853 148.269 284.418 148.216L287.778 147.88L287.938 149.192L284.69 149.512C284.434 149.544 284.189 149.587 283.954 149.64C283.73 149.693 283.533 149.768 283.362 149.864C283.202 149.949 283.069 150.061 282.962 150.2C282.866 150.339 282.818 150.504 282.818 150.696C282.818 150.845 282.85 150.984 282.914 151.112C282.978 151.229 283.085 151.331 283.234 151.416C283.383 151.501 283.575 151.565 283.81 151.608C284.045 151.651 284.333 151.672 284.674 151.672C285.154 151.672 285.559 151.624 285.89 151.528C286.221 151.432 286.487 151.309 286.69 151.16C286.893 151.011 287.037 150.851 287.122 150.68C287.218 150.509 287.266 150.349 287.266 150.2ZM287.25 147.896C287.25 147.533 287.181 147.251 287.042 147.048C286.903 146.835 286.727 146.675 286.514 146.568C286.301 146.461 286.066 146.392 285.81 146.36C285.554 146.328 285.319 146.312 285.106 146.312C284.871 146.312 284.631 146.328 284.386 146.36C284.151 146.381 283.927 146.44 283.714 146.536C283.511 146.632 283.346 146.776 283.218 146.968C283.09 147.16 283.026 147.427 283.026 147.768H281.346C281.346 147.224 281.431 146.765 281.602 146.392C281.773 146.008 282.023 145.693 282.354 145.448C282.685 145.203 283.079 145.027 283.538 144.92C284.007 144.813 284.53 144.76 285.106 144.76C285.778 144.76 286.359 144.819 286.85 144.936C287.351 145.043 287.767 145.229 288.098 145.496C288.429 145.763 288.674 146.115 288.834 146.552C289.005 146.989 289.09 147.528 289.09 148.168V153H287.25V147.896ZM298.662 153H296.822V148.696C296.822 148.355 296.79 148.051 296.726 147.784C296.662 147.507 296.55 147.272 296.39 147.08C296.241 146.888 296.028 146.739 295.75 146.632C295.473 146.525 295.121 146.472 294.694 146.472C293.937 146.472 293.361 146.685 292.966 147.112C292.572 147.528 292.374 148.152 292.374 148.984V149.176H291.734V149C291.734 148.371 291.793 147.795 291.91 147.272C292.028 146.749 292.22 146.301 292.486 145.928C292.764 145.555 293.121 145.267 293.558 145.064C294.006 144.861 294.556 144.76 295.206 144.76C295.782 144.76 296.284 144.829 296.71 144.968C297.148 145.107 297.51 145.325 297.798 145.624C298.086 145.923 298.3 146.312 298.438 146.792C298.588 147.272 298.662 147.853 298.662 148.536V153ZM292.374 153H290.534V145H292.374V153ZM304.129 144.76C304.758 144.76 305.313 144.851 305.793 145.032C306.284 145.203 306.694 145.448 307.025 145.768C307.356 146.077 307.601 146.44 307.761 146.856C307.932 147.272 308.017 147.72 308.017 148.2H306.337C306.337 147.944 306.289 147.715 306.193 147.512C306.108 147.299 305.969 147.117 305.777 146.968C305.585 146.808 305.35 146.685 305.073 146.6C304.796 146.515 304.476 146.472 304.113 146.472C303.75 146.472 303.42 146.515 303.121 146.6C302.833 146.685 302.582 146.829 302.369 147.032C302.156 147.235 301.99 147.496 301.873 147.816C301.756 148.125 301.697 148.509 301.697 148.968C301.697 149.448 301.761 149.853 301.889 150.184C302.017 150.504 302.193 150.765 302.417 150.968C302.652 151.16 302.918 151.299 303.217 151.384C303.526 151.469 303.857 151.512 304.209 151.512C304.593 151.512 304.918 151.469 305.185 151.384C305.462 151.299 305.686 151.181 305.857 151.032C306.038 150.883 306.172 150.701 306.257 150.488C306.353 150.275 306.401 150.045 306.401 149.8H308.081C308.081 150.28 308.001 150.728 307.841 151.144C307.681 151.56 307.441 151.928 307.121 152.248C306.801 152.557 306.396 152.803 305.905 152.984C305.414 153.155 304.833 153.24 304.161 153.24C302.732 153.24 301.644 152.883 300.897 152.168C300.15 151.453 299.777 150.397 299.777 149C299.777 147.592 300.124 146.536 300.817 145.832C301.51 145.117 302.614 144.76 304.129 144.76ZM312.766 153.688L308.158 145H310.238L313.998 152.04L312.766 153.688ZM314.334 152.728C314.12 153.347 313.923 153.896 313.742 154.376C313.56 154.867 313.347 155.283 313.102 155.624C312.867 155.965 312.568 156.227 312.206 156.408C311.854 156.589 311.39 156.68 310.814 156.68C310.376 156.68 310.003 156.6 309.694 156.44C309.384 156.291 309.128 156.077 308.926 155.8C308.723 155.523 308.574 155.192 308.478 154.808C308.382 154.435 308.334 154.029 308.334 153.592H309.934C309.934 153.901 309.955 154.152 309.998 154.344C310.051 154.547 310.115 154.707 310.19 154.824C310.275 154.941 310.371 155.016 310.478 155.048C310.595 155.091 310.712 155.112 310.83 155.112C311 155.112 311.15 155.069 311.278 154.984C311.406 154.899 311.523 154.776 311.63 154.616C311.736 154.467 311.832 154.28 311.918 154.056C312.003 153.843 312.094 153.603 312.19 153.336L315.086 145H317.038L314.334 152.728ZM319.671 153H317.831V145H319.671V153ZM325.063 148.232H323.383C323.383 147.965 323.351 147.725 323.287 147.512C323.223 147.299 323.122 147.117 322.983 146.968C322.845 146.808 322.669 146.685 322.455 146.6C322.242 146.515 321.986 146.472 321.687 146.472C321.058 146.472 320.562 146.685 320.199 147.112C319.847 147.528 319.671 148.152 319.671 148.984V149.176H319.031V149C319.031 148.371 319.09 147.795 319.207 147.272C319.335 146.749 319.527 146.301 319.783 145.928C320.039 145.555 320.359 145.267 320.743 145.064C321.127 144.861 321.575 144.76 322.087 144.76C322.578 144.76 323.005 144.835 323.367 144.984C323.741 145.123 324.05 145.336 324.295 145.624C324.551 145.901 324.743 146.259 324.871 146.696C324.999 147.133 325.063 147.645 325.063 148.232Z" fill="#797979"/>
<path d="M24.8 203V191.8H26.72V203H24.8ZM32.88 203V191.8H34.8V203H32.88ZM25.52 198.28V196.52H33.76V198.28H25.52ZM44.4738 199.224V199.544H42.6818V198.68C42.6818 198.264 42.6231 197.907 42.5058 197.608C42.3991 197.299 42.2444 197.053 42.0418 196.872C41.8391 196.68 41.5938 196.541 41.3058 196.456C41.0178 196.36 40.6978 196.312 40.3458 196.312C40.0044 196.312 39.6898 196.371 39.4018 196.488C39.1244 196.605 38.8791 196.776 38.6658 197C38.4524 197.213 38.2871 197.491 38.1698 197.832C38.0524 198.163 37.9938 198.552 37.9938 199C37.9938 199.501 38.0524 199.923 38.1698 200.264C38.2871 200.605 38.4524 200.883 38.6658 201.096C38.8898 201.309 39.1564 201.459 39.4658 201.544C39.7858 201.629 40.1484 201.672 40.5538 201.672C40.8631 201.672 41.1511 201.635 41.4178 201.56C41.6844 201.485 41.9084 201.384 42.0898 201.256C42.2818 201.128 42.4311 200.979 42.5378 200.808C42.6444 200.637 42.6978 200.456 42.6978 200.264L44.3778 200.28C44.3778 201.165 44.0524 201.88 43.4018 202.424C42.7511 202.968 41.8018 203.24 40.5538 203.24C39.0391 203.24 37.9138 202.883 37.1778 202.168C36.4418 201.453 36.0738 200.392 36.0738 198.984C36.0738 197.629 36.4311 196.589 37.1458 195.864C37.8711 195.128 38.9058 194.76 40.2498 194.76C41.7644 194.76 42.8471 195.139 43.4978 195.896C44.1484 196.643 44.4738 197.752 44.4738 199.224ZM36.9378 199.544V198.184H43.7378V199.544H36.9378ZM47.5931 203H45.7531V195H47.5931V203ZM52.9851 198.232H51.3051C51.3051 197.965 51.2731 197.725 51.2091 197.512C51.1451 197.299 51.0438 197.117 50.9051 196.968C50.7665 196.808 50.5905 196.685 50.3771 196.6C50.1638 196.515 49.9078 196.472 49.6091 196.472C48.9798 196.472 48.4838 196.685 48.1211 197.112C47.7691 197.528 47.5931 198.152 47.5931 198.984V199.176H46.9531V199C46.9531 198.371 47.0118 197.795 47.1291 197.272C47.2571 196.749 47.4491 196.301 47.7051 195.928C47.9611 195.555 48.2811 195.267 48.6651 195.064C49.0491 194.861 49.4971 194.76 50.0091 194.76C50.4998 194.76 50.9265 194.835 51.2891 194.984C51.6625 195.123 51.9718 195.336 52.2171 195.624C52.4731 195.901 52.6651 196.259 52.7931 196.696C52.9211 197.133 52.9851 197.645 52.9851 198.232ZM61.88 199.224V199.544H60.088V198.68C60.088 198.264 60.0293 197.907 59.912 197.608C59.8053 197.299 59.6507 197.053 59.448 196.872C59.2453 196.68 59 196.541 58.712 196.456C58.424 196.36 58.104 196.312 57.752 196.312C57.4107 196.312 57.096 196.371 56.808 196.488C56.5307 196.605 56.2853 196.776 56.072 197C55.8587 197.213 55.6933 197.491 55.576 197.832C55.4587 198.163 55.4 198.552 55.4 199C55.4 199.501 55.4587 199.923 55.576 200.264C55.6933 200.605 55.8587 200.883 56.072 201.096C56.296 201.309 56.5627 201.459 56.872 201.544C57.192 201.629 57.5547 201.672 57.96 201.672C58.2693 201.672 58.5573 201.635 58.824 201.56C59.0907 201.485 59.3147 201.384 59.496 201.256C59.688 201.128 59.8373 200.979 59.944 200.808C60.0507 200.637 60.104 200.456 60.104 200.264L61.784 200.28C61.784 201.165 61.4587 201.88 60.808 202.424C60.1573 202.968 59.208 203.24 57.96 203.24C56.4453 203.24 55.32 202.883 54.584 202.168C53.848 201.453 53.48 200.392 53.48 198.984C53.48 197.629 53.8373 196.589 54.552 195.864C55.2773 195.128 56.312 194.76 57.656 194.76C59.1707 194.76 60.2533 195.139 60.904 195.896C61.5547 196.643 61.88 197.752 61.88 199.224ZM54.344 199.544V198.184H61.144V199.544H54.344ZM67.3156 203V195H69.1556V203H67.3156ZM67.0436 192.568C67.0436 192.163 67.1343 191.864 67.3156 191.672C67.5076 191.469 67.817 191.368 68.2436 191.368C68.6596 191.368 68.9636 191.464 69.1556 191.656C69.3476 191.848 69.4436 192.152 69.4436 192.568C69.4436 192.973 69.3476 193.277 69.1556 193.48C68.9636 193.672 68.6596 193.768 68.2436 193.768C67.817 193.768 67.5076 193.672 67.3156 193.48C67.1343 193.277 67.0436 192.973 67.0436 192.568ZM70.4651 197.16C70.4651 196.733 70.5398 196.371 70.6891 196.072C70.8491 195.773 71.0838 195.528 71.3931 195.336C71.7131 195.133 72.1025 194.989 72.5611 194.904C73.0305 194.808 73.5745 194.76 74.1931 194.76C75.5798 194.76 76.5985 194.995 77.2491 195.464C77.8998 195.923 78.2251 196.675 78.2251 197.72H76.5451C76.5451 197.443 76.4865 197.219 76.3691 197.048C76.2625 196.867 76.0971 196.723 75.8731 196.616C75.6491 196.509 75.3665 196.435 75.0251 196.392C74.6945 196.339 74.3105 196.312 73.8731 196.312C73.4998 196.312 73.1905 196.339 72.9451 196.392C72.7105 196.435 72.5291 196.499 72.4011 196.584C72.2731 196.659 72.1825 196.744 72.1291 196.84C72.0865 196.936 72.0651 197.032 72.0651 197.128C72.0651 197.245 72.1078 197.352 72.1931 197.448C72.2891 197.544 72.4331 197.635 72.6251 197.72C72.8171 197.805 73.0678 197.891 73.3771 197.976C73.6971 198.061 74.0811 198.141 74.5291 198.216C75.0945 198.312 75.6118 198.413 76.0811 198.52C76.5505 198.616 76.9505 198.755 77.2811 198.936C77.6118 199.107 77.8678 199.336 78.0491 199.624C78.2305 199.912 78.3211 200.301 78.3211 200.792C78.3211 201.677 78.0065 202.307 77.3771 202.68C76.7478 203.053 75.8305 203.24 74.6251 203.24C73.1638 203.24 72.0971 203.011 71.4251 202.552C70.7638 202.083 70.4331 201.325 70.4331 200.28H72.1131C72.1131 200.536 72.1771 200.755 72.3051 200.936C72.4438 201.117 72.6305 201.261 72.8651 201.368C73.1105 201.475 73.3985 201.555 73.7291 201.608C74.0705 201.651 74.4491 201.672 74.8651 201.672C75.2065 201.672 75.4945 201.656 75.7291 201.624C75.9638 201.581 76.1558 201.523 76.3051 201.448C76.4545 201.373 76.5611 201.283 76.6251 201.176C76.6891 201.069 76.7211 200.957 76.7211 200.84C76.7211 200.659 76.6678 200.515 76.5611 200.408C76.4545 200.301 76.2891 200.216 76.0651 200.152C75.8518 200.088 75.5851 200.035 75.2651 199.992C74.9451 199.939 74.5718 199.875 74.1451 199.8C73.7078 199.736 73.2705 199.651 72.8331 199.544C72.3958 199.437 72.0011 199.288 71.6491 199.096C71.2971 198.904 71.0091 198.653 70.7851 198.344C70.5718 198.035 70.4651 197.64 70.4651 197.16ZM85.1931 200.152V195L85.8331 191.8H87.0331V199.912C87.0331 200.115 87.0438 200.317 87.0651 200.52C87.0971 200.712 87.1505 200.883 87.2251 201.032C87.2998 201.171 87.4118 201.288 87.5611 201.384C87.7105 201.469 87.9078 201.512 88.1531 201.512C88.3345 201.512 88.4998 201.491 88.6491 201.448C88.8091 201.395 88.9425 201.309 89.0491 201.192C89.1665 201.075 89.2571 200.915 89.3211 200.712C89.3851 200.509 89.4171 200.259 89.4171 199.96H91.0971C91.0971 200.579 91.0278 201.101 90.8891 201.528C90.7505 201.944 90.5531 202.28 90.2971 202.536C90.0411 202.792 89.7265 202.973 89.3531 203.08C88.9798 203.187 88.5585 203.24 88.0891 203.24C87.6198 203.24 87.2038 203.181 86.8411 203.064C86.4785 202.947 86.1745 202.765 85.9291 202.52C85.6838 202.264 85.4971 201.944 85.3691 201.56C85.2518 201.165 85.1931 200.696 85.1931 200.152ZM83.2731 195H91.0331V196.68H83.2731V195ZM94.1088 203H92.2688V191H94.1088V203ZM100.397 203H98.5568V198.696C98.5568 198.355 98.5248 198.051 98.4608 197.784C98.3968 197.507 98.2848 197.272 98.1248 197.08C97.9754 196.888 97.7621 196.739 97.4848 196.632C97.2074 196.525 96.8554 196.472 96.4288 196.472C95.6714 196.472 95.0954 196.685 94.7008 197.112C94.3061 197.528 94.1088 198.152 94.1088 198.984V199.176H93.4688V199C93.4688 198.371 93.5274 197.795 93.6448 197.272C93.7621 196.749 93.9541 196.301 94.2208 195.928C94.4981 195.555 94.8554 195.267 95.2928 195.064C95.7408 194.861 96.2901 194.76 96.9408 194.76C97.5168 194.76 98.0181 194.829 98.4448 194.968C98.8821 195.107 99.2448 195.325 99.5328 195.624C99.8208 195.923 100.034 196.312 100.173 196.792C100.322 197.272 100.397 197.853 100.397 198.536V203ZM109.911 199.224V199.544H108.119V198.68C108.119 198.264 108.061 197.907 107.943 197.608C107.837 197.299 107.682 197.053 107.479 196.872C107.277 196.68 107.031 196.541 106.743 196.456C106.455 196.36 106.135 196.312 105.783 196.312C105.442 196.312 105.127 196.371 104.839 196.488C104.562 196.605 104.317 196.776 104.103 197C103.89 197.213 103.725 197.491 103.607 197.832C103.49 198.163 103.431 198.552 103.431 199C103.431 199.501 103.49 199.923 103.607 200.264C103.725 200.605 103.89 200.883 104.103 201.096C104.327 201.309 104.594 201.459 104.903 201.544C105.223 201.629 105.586 201.672 105.991 201.672C106.301 201.672 106.589 201.635 106.855 201.56C107.122 201.485 107.346 201.384 107.527 201.256C107.719 201.128 107.869 200.979 107.975 200.808C108.082 200.637 108.135 200.456 108.135 200.264L109.815 200.28C109.815 201.165 109.49 201.88 108.839 202.424C108.189 202.968 107.239 203.24 105.991 203.24C104.477 203.24 103.351 202.883 102.615 202.168C101.879 201.453 101.511 200.392 101.511 198.984C101.511 197.629 101.869 196.589 102.583 195.864C103.309 195.128 104.343 194.76 105.687 194.76C107.202 194.76 108.285 195.139 108.935 195.896C109.586 196.643 109.911 197.752 109.911 199.224ZM102.375 199.544V198.184H109.175V199.544H102.375ZM115.059 197.16C115.059 196.733 115.134 196.371 115.283 196.072C115.443 195.773 115.678 195.528 115.987 195.336C116.307 195.133 116.696 194.989 117.155 194.904C117.624 194.808 118.168 194.76 118.787 194.76C120.174 194.76 121.192 194.995 121.843 195.464C122.494 195.923 122.819 196.675 122.819 197.72H121.139C121.139 197.443 121.08 197.219 120.963 197.048C120.856 196.867 120.691 196.723 120.467 196.616C120.243 196.509 119.96 196.435 119.619 196.392C119.288 196.339 118.904 196.312 118.467 196.312C118.094 196.312 117.784 196.339 117.539 196.392C117.304 196.435 117.123 196.499 116.995 196.584C116.867 196.659 116.776 196.744 116.723 196.84C116.68 196.936 116.659 197.032 116.659 197.128C116.659 197.245 116.702 197.352 116.787 197.448C116.883 197.544 117.027 197.635 117.219 197.72C117.411 197.805 117.662 197.891 117.971 197.976C118.291 198.061 118.675 198.141 119.123 198.216C119.688 198.312 120.206 198.413 120.675 198.52C121.144 198.616 121.544 198.755 121.875 198.936C122.206 199.107 122.462 199.336 122.643 199.624C122.824 199.912 122.915 200.301 122.915 200.792C122.915 201.677 122.6 202.307 121.971 202.68C121.342 203.053 120.424 203.24 119.219 203.24C117.758 203.24 116.691 203.011 116.019 202.552C115.358 202.083 115.027 201.325 115.027 200.28H116.707C116.707 200.536 116.771 200.755 116.899 200.936C117.038 201.117 117.224 201.261 117.459 201.368C117.704 201.475 117.992 201.555 118.323 201.608C118.664 201.651 119.043 201.672 119.459 201.672C119.8 201.672 120.088 201.656 120.323 201.624C120.558 201.581 120.75 201.523 120.899 201.448C121.048 201.373 121.155 201.283 121.219 201.176C121.283 201.069 121.315 200.957 121.315 200.84C121.315 200.659 121.262 200.515 121.155 200.408C121.048 200.301 120.883 200.216 120.659 200.152C120.446 200.088 120.179 200.035 119.859 199.992C119.539 199.939 119.166 199.875 118.739 199.8C118.302 199.736 117.864 199.651 117.427 199.544C116.99 199.437 116.595 199.288 116.243 199.096C115.891 198.904 115.603 198.653 115.379 198.344C115.166 198.035 115.059 197.64 115.059 197.16ZM131.599 203H129.759V198.376C129.759 198.12 129.732 197.88 129.679 197.656C129.625 197.421 129.529 197.219 129.391 197.048C129.263 196.867 129.081 196.728 128.847 196.632C128.623 196.525 128.335 196.472 127.983 196.472C127.343 196.472 126.857 196.685 126.527 197.112C126.196 197.528 126.031 198.152 126.031 198.984V199.176H125.407V199C125.407 198.371 125.465 197.795 125.583 197.272C125.7 196.749 125.887 196.301 126.143 195.928C126.409 195.555 126.745 195.267 127.151 195.064C127.556 194.861 128.052 194.76 128.639 194.76C129.129 194.76 129.556 194.835 129.919 194.984C130.292 195.123 130.601 195.341 130.847 195.64C131.092 195.928 131.279 196.291 131.407 196.728C131.535 197.165 131.599 197.677 131.599 198.264V203ZM126.031 203H124.191V195H126.031V203ZM137.151 203H135.311V198.696C135.311 198.355 135.284 198.051 135.231 197.784C135.177 197.507 135.087 197.272 134.959 197.08C134.831 196.888 134.649 196.739 134.415 196.632C134.191 196.525 133.903 196.472 133.551 196.472C133.22 196.472 132.932 196.525 132.687 196.632C132.452 196.728 132.249 196.867 132.079 197.048C131.919 197.219 131.796 197.421 131.711 197.656C131.636 197.88 131.599 198.125 131.599 198.392V199.176H130.607V198.264C130.607 197.837 130.66 197.416 130.767 197C130.873 196.584 131.049 196.211 131.295 195.88C131.54 195.539 131.865 195.267 132.271 195.064C132.676 194.861 133.183 194.76 133.791 194.76C134.377 194.76 134.879 194.829 135.295 194.968C135.721 195.107 136.073 195.325 136.351 195.624C136.628 195.923 136.831 196.312 136.959 196.792C137.087 197.272 137.151 197.853 137.151 198.536V203ZM144.485 200.2H144.709C144.709 200.605 144.682 200.995 144.629 201.368C144.576 201.731 144.448 202.051 144.245 202.328C144.042 202.605 143.733 202.829 143.317 203C142.912 203.16 142.352 203.24 141.637 203.24C141.125 203.24 140.656 203.203 140.229 203.128C139.802 203.053 139.429 202.92 139.109 202.728C138.8 202.536 138.554 202.28 138.373 201.96C138.202 201.629 138.117 201.219 138.117 200.728C138.117 200.323 138.192 199.976 138.341 199.688C138.501 199.4 138.73 199.16 139.029 198.968C139.328 198.765 139.696 198.605 140.133 198.488C140.57 198.36 141.072 198.269 141.637 198.216L144.997 197.88L145.157 199.192L141.909 199.512C141.653 199.544 141.408 199.587 141.173 199.64C140.949 199.693 140.752 199.768 140.581 199.864C140.421 199.949 140.288 200.061 140.181 200.2C140.085 200.339 140.037 200.504 140.037 200.696C140.037 200.845 140.069 200.984 140.133 201.112C140.197 201.229 140.304 201.331 140.453 201.416C140.602 201.501 140.794 201.565 141.029 201.608C141.264 201.651 141.552 201.672 141.893 201.672C142.373 201.672 142.778 201.624 143.109 201.528C143.44 201.432 143.706 201.309 143.909 201.16C144.112 201.011 144.256 200.851 144.341 200.68C144.437 200.509 144.485 200.349 144.485 200.2ZM144.469 197.896C144.469 197.533 144.4 197.251 144.261 197.048C144.122 196.835 143.946 196.675 143.733 196.568C143.52 196.461 143.285 196.392 143.029 196.36C142.773 196.328 142.538 196.312 142.325 196.312C142.09 196.312 141.85 196.328 141.605 196.36C141.37 196.381 141.146 196.44 140.933 196.536C140.73 196.632 140.565 196.776 140.437 196.968C140.309 197.16 140.245 197.427 140.245 197.768H138.565C138.565 197.224 138.65 196.765 138.821 196.392C138.992 196.008 139.242 195.693 139.573 195.448C139.904 195.203 140.298 195.027 140.757 194.92C141.226 194.813 141.749 194.76 142.325 194.76C142.997 194.76 143.578 194.819 144.069 194.936C144.57 195.043 144.986 195.229 145.317 195.496C145.648 195.763 145.893 196.115 146.053 196.552C146.224 196.989 146.309 197.528 146.309 198.168V203H144.469V197.896ZM149.593 203H147.753V191H149.593V203ZM153.031 203H151.191V191H153.031V203ZM162.816 194.76C163.446 194.76 164 194.851 164.48 195.032C164.971 195.203 165.382 195.448 165.712 195.768C166.043 196.077 166.288 196.44 166.448 196.856C166.619 197.272 166.704 197.72 166.704 198.2H165.024C165.024 197.944 164.976 197.715 164.88 197.512C164.795 197.299 164.656 197.117 164.464 196.968C164.272 196.808 164.038 196.685 163.76 196.6C163.483 196.515 163.163 196.472 162.8 196.472C162.438 196.472 162.107 196.515 161.808 196.6C161.52 196.685 161.27 196.829 161.056 197.032C160.843 197.235 160.678 197.496 160.56 197.816C160.443 198.125 160.384 198.509 160.384 198.968C160.384 199.448 160.448 199.853 160.576 200.184C160.704 200.504 160.88 200.765 161.104 200.968C161.339 201.16 161.606 201.299 161.904 201.384C162.214 201.469 162.544 201.512 162.896 201.512C163.28 201.512 163.606 201.469 163.872 201.384C164.15 201.299 164.374 201.181 164.544 201.032C164.726 200.883 164.859 200.701 164.944 200.488C165.04 200.275 165.088 200.045 165.088 199.8H166.768C166.768 200.28 166.688 200.728 166.528 201.144C166.368 201.56 166.128 201.928 165.808 202.248C165.488 202.557 165.083 202.803 164.592 202.984C164.102 203.155 163.52 203.24 162.848 203.24C161.419 203.24 160.331 202.883 159.584 202.168C158.838 201.453 158.464 200.397 158.464 199C158.464 197.592 158.811 196.536 159.504 195.832C160.198 195.117 161.302 194.76 162.816 194.76ZM173.782 200.2H174.006C174.006 200.605 173.979 200.995 173.926 201.368C173.872 201.731 173.744 202.051 173.542 202.328C173.339 202.605 173.03 202.829 172.614 203C172.208 203.16 171.648 203.24 170.934 203.24C170.422 203.24 169.952 203.203 169.526 203.128C169.099 203.053 168.726 202.92 168.406 202.728C168.096 202.536 167.851 202.28 167.67 201.96C167.499 201.629 167.414 201.219 167.414 200.728C167.414 200.323 167.488 199.976 167.638 199.688C167.798 199.4 168.027 199.16 168.326 198.968C168.624 198.765 168.992 198.605 169.43 198.488C169.867 198.36 170.368 198.269 170.934 198.216L174.294 197.88L174.454 199.192L171.206 199.512C170.95 199.544 170.704 199.587 170.47 199.64C170.246 199.693 170.048 199.768 169.878 199.864C169.718 199.949 169.584 200.061 169.478 200.2C169.382 200.339 169.334 200.504 169.334 200.696C169.334 200.845 169.366 200.984 169.43 201.112C169.494 201.229 169.6 201.331 169.75 201.416C169.899 201.501 170.091 201.565 170.326 201.608C170.56 201.651 170.848 201.672 171.19 201.672C171.67 201.672 172.075 201.624 172.406 201.528C172.736 201.432 173.003 201.309 173.206 201.16C173.408 201.011 173.552 200.851 173.638 200.68C173.734 200.509 173.782 200.349 173.782 200.2ZM173.766 197.896C173.766 197.533 173.696 197.251 173.558 197.048C173.419 196.835 173.243 196.675 173.03 196.568C172.816 196.461 172.582 196.392 172.326 196.36C172.07 196.328 171.835 196.312 171.622 196.312C171.387 196.312 171.147 196.328 170.902 196.36C170.667 196.381 170.443 196.44 170.23 196.536C170.027 196.632 169.862 196.776 169.734 196.968C169.606 197.16 169.542 197.427 169.542 197.768H167.862C167.862 197.224 167.947 196.765 168.118 196.392C168.288 196.008 168.539 195.693 168.87 195.448C169.2 195.203 169.595 195.027 170.054 194.92C170.523 194.813 171.046 194.76 171.622 194.76C172.294 194.76 172.875 194.819 173.366 194.936C173.867 195.043 174.283 195.229 174.614 195.496C174.944 195.763 175.19 196.115 175.35 196.552C175.52 196.989 175.606 197.528 175.606 198.168V203H173.766V197.896ZM178.89 206.2H177.05V195H178.89V206.2ZM185.178 199C185.178 199.693 185.077 200.307 184.874 200.84C184.682 201.363 184.415 201.805 184.074 202.168C183.733 202.52 183.338 202.787 182.89 202.968C182.442 203.149 181.967 203.24 181.466 203.24C180.837 203.24 180.319 203.128 179.914 202.904C179.519 202.669 179.21 202.36 178.986 201.976C178.762 201.592 178.607 201.144 178.522 200.632C178.437 200.12 178.394 199.576 178.394 199C178.394 198.36 178.437 197.779 178.522 197.256C178.618 196.733 178.783 196.291 179.018 195.928C179.253 195.555 179.567 195.267 179.962 195.064C180.367 194.861 180.89 194.76 181.53 194.76C182.074 194.76 182.57 194.851 183.018 195.032C183.466 195.213 183.85 195.485 184.17 195.848C184.49 196.2 184.735 196.643 184.906 197.176C185.087 197.699 185.178 198.307 185.178 199ZM183.258 198.984C183.258 198.152 183.087 197.528 182.746 197.112C182.415 196.685 181.866 196.472 181.098 196.472C180.373 196.472 179.823 196.685 179.45 197.112C179.077 197.528 178.89 198.152 178.89 198.984C178.89 199.816 179.077 200.445 179.45 200.872C179.823 201.299 180.373 201.512 181.098 201.512C181.418 201.512 181.711 201.459 181.978 201.352C182.245 201.245 182.474 201.085 182.666 200.872C182.858 200.659 183.002 200.397 183.098 200.088C183.205 199.768 183.258 199.4 183.258 198.984ZM187.896 200.152V195L188.536 191.8H189.736V199.912C189.736 200.115 189.747 200.317 189.768 200.52C189.8 200.712 189.854 200.883 189.928 201.032C190.003 201.171 190.115 201.288 190.264 201.384C190.414 201.469 190.611 201.512 190.856 201.512C191.038 201.512 191.203 201.491 191.352 201.448C191.512 201.395 191.646 201.309 191.752 201.192C191.87 201.075 191.96 200.915 192.024 200.712C192.088 200.509 192.12 200.259 192.12 199.96H193.8C193.8 200.579 193.731 201.101 193.592 201.528C193.454 201.944 193.256 202.28 193 202.536C192.744 202.792 192.43 202.973 192.056 203.08C191.683 203.187 191.262 203.24 190.792 203.24C190.323 203.24 189.907 203.181 189.544 203.064C189.182 202.947 188.878 202.765 188.632 202.52C188.387 202.264 188.2 201.944 188.072 201.56C187.955 201.165 187.896 200.696 187.896 200.152ZM185.976 195H193.736V196.68H185.976V195ZM194.972 203V195H196.812V203H194.972ZM194.7 192.568C194.7 192.163 194.791 191.864 194.972 191.672C195.164 191.469 195.473 191.368 195.9 191.368C196.316 191.368 196.62 191.464 196.812 191.656C197.004 191.848 197.1 192.152 197.1 192.568C197.1 192.973 197.004 193.277 196.812 193.48C196.62 193.672 196.316 193.768 195.9 193.768C195.473 193.768 195.164 193.672 194.972 193.48C194.791 193.277 194.7 192.973 194.7 192.568ZM198.089 199C198.089 197.603 198.452 196.547 199.177 195.832C199.913 195.117 201.044 194.76 202.569 194.76C204.084 194.76 205.209 195.117 205.945 195.832C206.681 196.547 207.049 197.603 207.049 199C207.049 200.397 206.681 201.453 205.945 202.168C205.209 202.883 204.084 203.24 202.569 203.24C201.044 203.24 199.913 202.883 199.177 202.168C198.452 201.453 198.089 200.397 198.089 199ZM200.009 199C200.009 199.832 200.217 200.461 200.633 200.888C201.06 201.304 201.705 201.512 202.569 201.512C203.433 201.512 204.073 201.304 204.489 200.888C204.916 200.461 205.129 199.832 205.129 199C205.129 198.168 204.916 197.539 204.489 197.112C204.073 196.685 203.433 196.472 202.569 196.472C201.673 196.472 201.023 196.685 200.617 197.112C200.212 197.539 200.009 198.168 200.009 199ZM216.459 203H214.619V198.696C214.619 198.355 214.587 198.051 214.523 197.784C214.459 197.507 214.347 197.272 214.187 197.08C214.038 196.888 213.825 196.739 213.547 196.632C213.27 196.525 212.918 196.472 212.491 196.472C211.734 196.472 211.158 196.685 210.763 197.112C210.369 197.528 210.171 198.152 210.171 198.984V199.176H209.531V199C209.531 198.371 209.59 197.795 209.707 197.272C209.825 196.749 210.017 196.301 210.283 195.928C210.561 195.555 210.918 195.267 211.355 195.064C211.803 194.861 212.353 194.76 213.003 194.76C213.579 194.76 214.081 194.829 214.507 194.968C214.945 195.107 215.307 195.325 215.595 195.624C215.883 195.923 216.097 196.312 216.235 196.792C216.385 197.272 216.459 197.853 216.459 198.536V203ZM210.171 203H208.331V195H210.171V203ZM223.49 200.152V195L224.13 191.8H225.33V199.912C225.33 200.115 225.341 200.317 225.362 200.52C225.394 200.712 225.447 200.883 225.522 201.032C225.597 201.171 225.709 201.288 225.858 201.384C226.007 201.469 226.205 201.512 226.45 201.512C226.631 201.512 226.797 201.491 226.946 201.448C227.106 201.395 227.239 201.309 227.346 201.192C227.463 201.075 227.554 200.915 227.618 200.712C227.682 200.509 227.714 200.259 227.714 199.96H229.394C229.394 200.579 229.325 201.101 229.186 201.528C229.047 201.944 228.85 202.28 228.594 202.536C228.338 202.792 228.023 202.973 227.65 203.08C227.277 203.187 226.855 203.24 226.386 203.24C225.917 203.24 225.501 203.181 225.138 203.064C224.775 202.947 224.471 202.765 224.226 202.52C223.981 202.264 223.794 201.944 223.666 201.56C223.549 201.165 223.49 200.696 223.49 200.152ZM221.57 195H229.33V196.68H221.57V195ZM238.646 199.224V199.544H236.854V198.68C236.854 198.264 236.795 197.907 236.678 197.608C236.571 197.299 236.416 197.053 236.214 196.872C236.011 196.68 235.766 196.541 235.478 196.456C235.19 196.36 234.87 196.312 234.518 196.312C234.176 196.312 233.862 196.371 233.574 196.488C233.296 196.605 233.051 196.776 232.838 197C232.624 197.213 232.459 197.491 232.342 197.832C232.224 198.163 232.166 198.552 232.166 199C232.166 199.501 232.224 199.923 232.342 200.264C232.459 200.605 232.624 200.883 232.838 201.096C233.062 201.309 233.328 201.459 233.638 201.544C233.958 201.629 234.32 201.672 234.726 201.672C235.035 201.672 235.323 201.635 235.59 201.56C235.856 201.485 236.08 201.384 236.262 201.256C236.454 201.128 236.603 200.979 236.71 200.808C236.816 200.637 236.87 200.456 236.87 200.264L238.55 200.28C238.55 201.165 238.224 201.88 237.574 202.424C236.923 202.968 235.974 203.24 234.726 203.24C233.211 203.24 232.086 202.883 231.35 202.168C230.614 201.453 230.246 200.392 230.246 198.984C230.246 197.629 230.603 196.589 231.318 195.864C232.043 195.128 233.078 194.76 234.422 194.76C235.936 194.76 237.019 195.139 237.67 195.896C238.32 196.643 238.646 197.752 238.646 199.224ZM231.11 199.544V198.184H237.91V199.544H231.11ZM244.789 199L248.197 203H245.941L242.533 199L245.941 195H248.197L244.789 199ZM242.533 199L239.125 195H241.381L244.789 199L241.381 203H239.125L242.533 199ZM250.443 200.152V195L251.083 191.8H252.283V199.912C252.283 200.115 252.294 200.317 252.315 200.52C252.347 200.712 252.4 200.883 252.475 201.032C252.55 201.171 252.662 201.288 252.811 201.384C252.96 201.469 253.158 201.512 253.403 201.512C253.584 201.512 253.75 201.491 253.899 201.448C254.059 201.395 254.192 201.309 254.299 201.192C254.416 201.075 254.507 200.915 254.571 200.712C254.635 200.509 254.667 200.259 254.667 199.96H256.347C256.347 200.579 256.278 201.101 256.139 201.528C256 201.944 255.803 202.28 255.547 202.536C255.291 202.792 254.976 202.973 254.603 203.08C254.23 203.187 253.808 203.24 253.339 203.24C252.87 203.24 252.454 203.181 252.091 203.064C251.728 202.947 251.424 202.765 251.179 202.52C250.934 202.264 250.747 201.944 250.619 201.56C250.502 201.165 250.443 200.696 250.443 200.152ZM248.523 195H256.283V196.68H248.523V195ZM257.199 202.12C257.199 201.747 257.284 201.469 257.455 201.288C257.636 201.096 257.924 201 258.319 201C258.713 201 258.996 201.096 259.167 201.288C259.348 201.469 259.439 201.747 259.439 202.12C259.439 202.493 259.348 202.776 259.167 202.968C258.996 203.149 258.713 203.24 258.319 203.24C257.924 203.24 257.636 203.149 257.455 202.968C257.284 202.776 257.199 202.493 257.199 202.12Z" fill="#1D1D1D"/>
<path d="M30.416 236.24C28.4 236.24 26.9067 235.76 25.936 234.8C24.9653 233.84 24.48 232.368 24.48 230.384C24.48 228.4 24.9333 226.933 25.84 225.984C26.7467 225.035 28.1387 224.56 30.016 224.56C30.8907 224.56 31.6587 224.635 32.32 224.784C32.992 224.933 33.5573 225.173 34.016 225.504C34.4747 225.835 34.8213 226.261 35.056 226.784C35.3013 227.307 35.424 227.941 35.424 228.688H33.584C33.584 228.197 33.4773 227.803 33.264 227.504C33.0507 227.195 32.7733 226.955 32.432 226.784C32.0907 226.613 31.7013 226.501 31.264 226.448C30.8373 226.384 30.4053 226.352 29.968 226.352C29.3387 226.352 28.8 226.432 28.352 226.592C27.9147 226.741 27.5573 226.981 27.28 227.312C27.0027 227.643 26.8 228.059 26.672 228.56C26.544 229.061 26.48 229.669 26.48 230.384C26.48 231.792 26.8053 232.821 27.456 233.472C28.1173 234.112 29.1253 234.432 30.48 234.432C30.8533 234.432 31.232 234.411 31.616 234.368C32 234.315 32.3413 234.213 32.64 234.064C32.9387 233.904 33.1787 233.685 33.36 233.408C33.552 233.12 33.648 232.736 33.648 232.256H35.488C35.488 233.003 35.3653 233.632 35.12 234.144C34.8853 234.645 34.544 235.051 34.096 235.36C33.6587 235.669 33.1253 235.893 32.496 236.032C31.8667 236.171 31.1733 236.24 30.416 236.24ZM35.4925 236L40.0845 224.8H42.1645L37.5725 236H35.4925ZM37.3645 234.064V232.304H44.8845V234.064H37.3645ZM46.7565 236H44.6765L40.0845 224.8H42.1645L46.7565 236ZM47.6906 236V224.8H49.6106V236H47.6906ZM52.7306 232.4H47.6906V230.64H52.7146C53.2373 230.64 53.6693 230.597 54.0106 230.512C54.352 230.427 54.624 230.299 54.8266 230.128C55.0293 229.957 55.168 229.744 55.2426 229.488C55.328 229.232 55.3706 228.933 55.3706 228.592C55.3706 228.251 55.328 227.952 55.2426 227.696C55.168 227.44 55.0293 227.232 54.8266 227.072C54.624 226.901 54.352 226.773 54.0106 226.688C53.6693 226.603 53.2373 226.56 52.7146 226.56H47.6906V224.8H52.7306C53.5733 224.8 54.288 224.88 54.8746 225.04C55.4613 225.2 55.9413 225.44 56.3146 225.76C56.688 226.08 56.9546 226.475 57.1146 226.944C57.2853 227.413 57.3706 227.963 57.3706 228.592C57.3706 229.221 57.2853 229.776 57.1146 230.256C56.9546 230.725 56.688 231.12 56.3146 231.44C55.952 231.76 55.472 232 54.8746 232.16C54.288 232.32 53.5733 232.4 52.7306 232.4ZM61.6838 236V224.8H63.6038V236H61.6838ZM58.0838 226.56V224.8H67.2038V226.56H58.0838ZM68.2375 236V224.8H70.1575V236H68.2375ZM71.4331 230.4C71.4331 228.469 71.8971 227.013 72.8251 226.032C73.7638 225.051 75.1931 224.56 77.1131 224.56C79.0331 224.56 80.4571 225.051 81.3851 226.032C82.3238 227.013 82.7931 228.469 82.7931 230.4C82.7931 232.331 82.3238 233.787 81.3851 234.768C80.4571 235.749 79.0331 236.24 77.1131 236.24C75.1931 236.24 73.7638 235.749 72.8251 234.768C71.8971 233.787 71.4331 232.331 71.4331 230.4ZM73.4331 230.4C73.4331 231.733 73.7318 232.741 74.3291 233.424C74.9371 234.096 75.8651 234.432 77.1131 234.432C78.3718 234.432 79.2998 234.096 79.8971 233.424C80.4945 232.741 80.7931 231.733 80.7931 230.4C80.7931 229.056 80.4945 228.048 79.8971 227.376C79.2998 226.693 78.3718 226.352 77.1131 226.352C75.8331 226.352 74.8998 226.693 74.3131 227.376C73.7265 228.059 73.4331 229.067 73.4331 230.4ZM84.0656 236V224.8H85.9856V236H84.0656ZM91.8896 236V224.8H93.8096V236H91.8896ZM84.6576 226.128L85.9856 224.8L92.8176 234.096L91.8896 236L84.6576 226.128ZM102.606 236V224.8H104.526V236H102.606ZM99.0056 226.56V224.8H108.126V226.56H99.0056ZM109.159 236V224.8H111.079V236H109.159ZM109.799 231.28V229.52H117.319V231.28H109.799ZM109.799 226.56V224.8H117.959V226.56H109.799ZM109.799 236V234.24H118.119V236H109.799ZM125.332 230.4L129.764 236H127.364L124.148 231.968L120.916 236H118.516L122.948 230.4L118.516 224.8H120.916L124.148 228.832L127.364 224.8H129.764L125.332 230.4ZM133.606 236V224.8H135.526V236H133.606ZM130.006 226.56V224.8H139.126V226.56H130.006Z" fill="#797979"/>
<path d="M158.72 236V224.8H160.64V236H158.72ZM156.32 226.56V224.8H160.64V226.56H156.32ZM161.918 230.4C161.918 228.469 162.291 227.013 163.038 226.032C163.795 225.051 164.958 224.56 166.526 224.56C168.083 224.56 169.235 225.051 169.982 226.032C170.739 227.013 171.118 228.469 171.118 230.4C171.118 232.331 170.739 233.787 169.982 234.768C169.235 235.749 168.083 236.24 166.526 236.24C164.958 236.24 163.795 235.749 163.038 234.768C162.291 233.787 161.918 232.331 161.918 230.4ZM163.918 230.4C163.918 231.744 164.131 232.752 164.558 233.424C164.984 234.096 165.64 234.432 166.526 234.432C167.411 234.432 168.062 234.096 168.478 233.424C168.904 232.752 169.118 231.739 169.118 230.384C169.118 229.051 168.904 228.048 168.478 227.376C168.062 226.693 167.411 226.352 166.526 226.352C166.035 226.352 165.624 226.437 165.294 226.608C164.974 226.779 164.707 227.035 164.494 227.376C164.291 227.707 164.142 228.128 164.046 228.64C163.96 229.141 163.918 229.728 163.918 230.4ZM172.394 236V224.8H174.314V236H172.394ZM177.434 232.4H172.394V230.64H177.418C177.94 230.64 178.372 230.597 178.714 230.512C179.055 230.427 179.327 230.299 179.53 230.128C179.732 229.957 179.871 229.744 179.946 229.488C180.031 229.232 180.074 228.933 180.074 228.592C180.074 228.251 180.031 227.952 179.946 227.696C179.871 227.44 179.732 227.232 179.53 227.072C179.327 226.901 179.055 226.773 178.714 226.688C178.372 226.603 177.94 226.56 177.418 226.56H172.394V224.8H177.434C178.276 224.8 178.991 224.88 179.578 225.04C180.164 225.2 180.644 225.44 181.018 225.76C181.391 226.08 181.658 226.475 181.818 226.944C181.988 227.413 182.074 227.963 182.074 228.592C182.074 229.221 181.988 229.776 181.818 230.256C181.658 230.725 181.391 231.12 181.018 231.44C180.655 231.76 180.175 232 179.578 232.16C178.991 232.32 178.276 232.4 177.434 232.4ZM188.988 230.4L193.42 236H191.02L187.804 231.968L184.572 236H182.172L186.604 230.4L182.172 224.8H184.572L187.804 228.832L191.02 224.8H193.42L188.988 230.4Z" fill="#797979"/>
<path d="M212.72 236V224.8H214.64V236H212.72ZM210.32 226.56V224.8H214.64V226.56H210.32ZM215.918 230.4C215.918 228.469 216.291 227.013 217.038 226.032C217.795 225.051 218.958 224.56 220.526 224.56C222.083 224.56 223.235 225.051 223.982 226.032C224.739 227.013 225.118 228.469 225.118 230.4C225.118 232.331 224.739 233.787 223.982 234.768C223.235 235.749 222.083 236.24 220.526 236.24C218.958 236.24 217.795 235.749 217.038 234.768C216.291 233.787 215.918 232.331 215.918 230.4ZM217.918 230.4C217.918 231.744 218.131 232.752 218.558 233.424C218.984 234.096 219.64 234.432 220.526 234.432C221.411 234.432 222.062 234.096 222.478 233.424C222.904 232.752 223.118 231.739 223.118 230.384C223.118 229.051 222.904 228.048 222.478 227.376C222.062 226.693 221.411 226.352 220.526 226.352C220.035 226.352 219.624 226.437 219.294 226.608C218.974 226.779 218.707 227.035 218.494 227.376C218.291 227.707 218.142 228.128 218.046 228.64C217.96 229.141 217.918 229.728 217.918 230.4ZM226.074 230.4C226.074 228.469 226.447 227.013 227.194 226.032C227.951 225.051 229.114 224.56 230.682 224.56C232.239 224.56 233.391 225.051 234.138 226.032C234.895 227.013 235.274 228.469 235.274 230.4C235.274 232.331 234.895 233.787 234.138 234.768C233.391 235.749 232.239 236.24 230.682 236.24C229.114 236.24 227.951 235.749 227.194 234.768C226.447 233.787 226.074 232.331 226.074 230.4ZM228.074 230.4C228.074 231.744 228.287 232.752 228.714 233.424C229.14 234.096 229.796 234.432 230.682 234.432C231.567 234.432 232.218 234.096 232.634 233.424C233.06 232.752 233.274 231.739 233.274 230.384C233.274 229.051 233.06 228.048 232.634 227.376C232.218 226.693 231.567 226.352 230.682 226.352C230.191 226.352 229.78 226.437 229.45 226.608C229.13 226.779 228.863 227.035 228.65 227.376C228.447 227.707 228.298 228.128 228.202 228.64C228.116 229.141 228.074 229.728 228.074 230.4ZM238.182 236L244.534 224.8H245.91L239.558 236H238.182ZM236.23 227.504C236.23 226.533 236.433 225.803 236.838 225.312C237.243 224.811 237.862 224.56 238.694 224.56C239.526 224.56 240.139 224.811 240.534 225.312C240.939 225.803 241.142 226.533 241.142 227.504C241.142 228.496 240.939 229.243 240.534 229.744C240.139 230.235 239.526 230.48 238.694 230.48C237.862 230.48 237.243 230.235 236.838 229.744C236.433 229.243 236.23 228.496 236.23 227.504ZM237.51 227.504C237.51 228.101 237.606 228.549 237.798 228.848C237.99 229.136 238.289 229.28 238.694 229.28C239.089 229.28 239.382 229.136 239.574 228.848C239.766 228.549 239.862 228.101 239.862 227.504C239.862 226.928 239.766 226.496 239.574 226.208C239.382 225.909 239.089 225.76 238.694 225.76C238.267 225.76 237.963 225.909 237.782 226.208C237.601 226.496 237.51 226.928 237.51 227.504ZM243.206 233.264C243.206 232.293 243.409 231.563 243.814 231.072C244.219 230.571 244.838 230.32 245.67 230.32C246.502 230.32 247.115 230.571 247.51 231.072C247.915 231.563 248.118 232.293 248.118 233.264C248.118 234.256 247.915 235.003 247.51 235.504C247.115 235.995 246.502 236.24 245.67 236.24C244.838 236.24 244.219 235.995 243.814 235.504C243.409 235.003 243.206 234.256 243.206 233.264ZM244.486 233.264C244.486 233.861 244.582 234.309 244.774 234.608C244.966 234.896 245.265 235.04 245.67 235.04C246.065 235.04 246.358 234.896 246.55 234.608C246.742 234.309 246.838 233.861 246.838 233.264C246.838 232.688 246.742 232.256 246.55 231.968C246.358 231.669 246.065 231.52 245.67 231.52C245.243 231.52 244.939 231.669 244.758 231.968C244.577 232.256 244.486 232.688 244.486 233.264Z" fill="#797979"/>
<path d="M270.536 236.24C269.736 236.24 269.021 236.123 268.392 235.888C267.773 235.643 267.245 235.28 266.808 234.8C266.381 234.309 266.051 233.696 265.816 232.96C265.592 232.224 265.48 231.365 265.48 230.384C265.48 228.4 265.933 226.933 266.84 225.984C267.747 225.035 269.144 224.56 271.032 224.56C271.896 224.56 272.659 224.635 273.32 224.784C273.992 224.933 274.557 225.173 275.016 225.504C275.475 225.835 275.821 226.261 276.056 226.784C276.301 227.307 276.424 227.941 276.424 228.688H274.584C274.584 228.197 274.477 227.803 274.264 227.504C274.051 227.195 273.773 226.955 273.432 226.784C273.091 226.613 272.701 226.501 272.264 226.448C271.837 226.384 271.405 226.352 270.968 226.352C270.339 226.352 269.8 226.432 269.352 226.592C268.915 226.741 268.557 226.981 268.28 227.312C268.003 227.643 267.8 228.059 267.672 228.56C267.544 229.061 267.48 229.664 267.48 230.368C267.48 231.083 267.56 231.696 267.72 232.208C267.88 232.72 268.104 233.141 268.392 233.472C268.691 233.803 269.053 234.048 269.48 234.208C269.917 234.357 270.408 234.432 270.952 234.432C271.443 234.432 271.88 234.32 272.264 234.096C272.659 233.872 273.011 233.579 273.32 233.216C273.629 232.853 273.907 232.448 274.152 232C274.408 231.541 274.632 231.088 274.824 230.64L275.896 230.944C275.661 231.563 275.379 232.187 275.048 232.816C274.717 233.445 274.328 234.016 273.88 234.528C273.443 235.029 272.947 235.44 272.392 235.76C271.837 236.08 271.219 236.24 270.536 236.24ZM274.664 236V231.2H276.504V236H274.664ZM270.984 231.808V230.128H276.504V231.808H270.984ZM279.781 236H277.941V224H279.781V236ZM287.266 233.2H287.49C287.49 233.605 287.463 233.995 287.41 234.368C287.357 234.731 287.229 235.051 287.026 235.328C286.823 235.605 286.514 235.829 286.098 236C285.693 236.16 285.133 236.24 284.418 236.24C283.906 236.24 283.437 236.203 283.01 236.128C282.583 236.053 282.21 235.92 281.89 235.728C281.581 235.536 281.335 235.28 281.154 234.96C280.983 234.629 280.898 234.219 280.898 233.728C280.898 233.323 280.973 232.976 281.122 232.688C281.282 232.4 281.511 232.16 281.81 231.968C282.109 231.765 282.477 231.605 282.914 231.488C283.351 231.36 283.853 231.269 284.418 231.216L287.778 230.88L287.938 232.192L284.69 232.512C284.434 232.544 284.189 232.587 283.954 232.64C283.73 232.693 283.533 232.768 283.362 232.864C283.202 232.949 283.069 233.061 282.962 233.2C282.866 233.339 282.818 233.504 282.818 233.696C282.818 233.845 282.85 233.984 282.914 234.112C282.978 234.229 283.085 234.331 283.234 234.416C283.383 234.501 283.575 234.565 283.81 234.608C284.045 234.651 284.333 234.672 284.674 234.672C285.154 234.672 285.559 234.624 285.89 234.528C286.221 234.432 286.487 234.309 286.69 234.16C286.893 234.011 287.037 233.851 287.122 233.68C287.218 233.509 287.266 233.349 287.266 233.2ZM287.25 230.896C287.25 230.533 287.181 230.251 287.042 230.048C286.903 229.835 286.727 229.675 286.514 229.568C286.301 229.461 286.066 229.392 285.81 229.36C285.554 229.328 285.319 229.312 285.106 229.312C284.871 229.312 284.631 229.328 284.386 229.36C284.151 229.381 283.927 229.44 283.714 229.536C283.511 229.632 283.346 229.776 283.218 229.968C283.09 230.16 283.026 230.427 283.026 230.768H281.346C281.346 230.224 281.431 229.765 281.602 229.392C281.773 229.008 282.023 228.693 282.354 228.448C282.685 228.203 283.079 228.027 283.538 227.92C284.007 227.813 284.53 227.76 285.106 227.76C285.778 227.76 286.359 227.819 286.85 227.936C287.351 228.043 287.767 228.229 288.098 228.496C288.429 228.763 288.674 229.115 288.834 229.552C289.005 229.989 289.09 230.528 289.09 231.168V236H287.25V230.896ZM298.662 236H296.822V231.696C296.822 231.355 296.79 231.051 296.726 230.784C296.662 230.507 296.55 230.272 296.39 230.08C296.241 229.888 296.028 229.739 295.75 229.632C295.473 229.525 295.121 229.472 294.694 229.472C293.937 229.472 293.361 229.685 292.966 230.112C292.572 230.528 292.374 231.152 292.374 231.984V232.176H291.734V232C291.734 231.371 291.793 230.795 291.91 230.272C292.028 229.749 292.22 229.301 292.486 228.928C292.764 228.555 293.121 228.267 293.558 228.064C294.006 227.861 294.556 227.76 295.206 227.76C295.782 227.76 296.284 227.829 296.71 227.968C297.148 228.107 297.51 228.325 297.798 228.624C298.086 228.923 298.3 229.312 298.438 229.792C298.588 230.272 298.662 230.853 298.662 231.536V236ZM292.374 236H290.534V228H292.374V236ZM304.129 227.76C304.758 227.76 305.313 227.851 305.793 228.032C306.284 228.203 306.694 228.448 307.025 228.768C307.356 229.077 307.601 229.44 307.761 229.856C307.932 230.272 308.017 230.72 308.017 231.2H306.337C306.337 230.944 306.289 230.715 306.193 230.512C306.108 230.299 305.969 230.117 305.777 229.968C305.585 229.808 305.35 229.685 305.073 229.6C304.796 229.515 304.476 229.472 304.113 229.472C303.75 229.472 303.42 229.515 303.121 229.6C302.833 229.685 302.582 229.829 302.369 230.032C302.156 230.235 301.99 230.496 301.873 230.816C301.756 231.125 301.697 231.509 301.697 231.968C301.697 232.448 301.761 232.853 301.889 233.184C302.017 233.504 302.193 233.765 302.417 233.968C302.652 234.16 302.918 234.299 303.217 234.384C303.526 234.469 303.857 234.512 304.209 234.512C304.593 234.512 304.918 234.469 305.185 234.384C305.462 234.299 305.686 234.181 305.857 234.032C306.038 233.883 306.172 233.701 306.257 233.488C306.353 233.275 306.401 233.045 306.401 232.8H308.081C308.081 233.28 308.001 233.728 307.841 234.144C307.681 234.56 307.441 234.928 307.121 235.248C306.801 235.557 306.396 235.803 305.905 235.984C305.414 236.155 304.833 236.24 304.161 236.24C302.732 236.24 301.644 235.883 300.897 235.168C300.15 234.453 299.777 233.397 299.777 232C299.777 230.592 300.124 229.536 300.817 228.832C301.51 228.117 302.614 227.76 304.129 227.76ZM312.766 236.688L308.158 228H310.238L313.998 235.04L312.766 236.688ZM314.334 235.728C314.12 236.347 313.923 236.896 313.742 237.376C313.56 237.867 313.347 238.283 313.102 238.624C312.867 238.965 312.568 239.227 312.206 239.408C311.854 239.589 311.39 239.68 310.814 239.68C310.376 239.68 310.003 239.6 309.694 239.44C309.384 239.291 309.128 239.077 308.926 238.8C308.723 238.523 308.574 238.192 308.478 237.808C308.382 237.435 308.334 237.029 308.334 236.592H309.934C309.934 236.901 309.955 237.152 309.998 237.344C310.051 237.547 310.115 237.707 310.19 237.824C310.275 237.941 310.371 238.016 310.478 238.048C310.595 238.091 310.712 238.112 310.83 238.112C311 238.112 311.15 238.069 311.278 237.984C311.406 237.899 311.523 237.776 311.63 237.616C311.736 237.467 311.832 237.28 311.918 237.056C312.003 236.843 312.094 236.603 312.19 236.336L315.086 228H317.038L314.334 235.728ZM319.671 236H317.831V228H319.671V236ZM325.063 231.232H323.383C323.383 230.965 323.351 230.725 323.287 230.512C323.223 230.299 323.122 230.117 322.983 229.968C322.845 229.808 322.669 229.685 322.455 229.6C322.242 229.515 321.986 229.472 321.687 229.472C321.058 229.472 320.562 229.685 320.199 230.112C319.847 230.528 319.671 231.152 319.671 231.984V232.176H319.031V232C319.031 231.371 319.09 230.795 319.207 230.272C319.335 229.749 319.527 229.301 319.783 228.928C320.039 228.555 320.359 228.267 320.743 228.064C321.127 227.861 321.575 227.76 322.087 227.76C322.578 227.76 323.005 227.835 323.367 227.984C323.741 228.123 324.05 228.336 324.295 228.624C324.551 228.901 324.743 229.259 324.871 229.696C324.999 230.133 325.063 230.645 325.063 231.232Z" fill="#797979"/>
</svg>
