<svg width="1722" height="773" viewBox="0 0 1722 773" fill="none" xmlns="http://www.w3.org/2000/svg">
<rect width="1722" height="773" fill="#094C3D"/>
<path d="M511.057 283H647.216L624.822 324.456H488.663L511.057 283Z" fill="white"/>
<path d="M487.767 448.827H602.427L580.032 490.283H465.372L487.767 448.827Z" fill="white"/>
<path d="M466.871 365.912H647.217L625.116 407.369H444.77L466.871 365.912Z" fill="white"/>
<path d="M439.395 324.457L488.663 324.456L466.268 365.914H417L439.395 324.457Z" fill="white"/>
<path d="M624.822 407.37H668.715L646.321 448.826L602.427 448.827L624.822 407.37Z" fill="white"/>
<path d="M810.836 406.5V433.53L791.6 444.641H748.485V430.214H794.751V409.817H767.721L748.485 398.707V372.838L767.721 361.727H809.178V376.154H764.57V395.39H791.6L810.836 406.5ZM907.866 434.359L888.631 445.47H856.626L837.39 434.359V372.008L856.626 360.898H888.631L907.866 372.008V434.359ZM853.475 375.325V431.043H891.781V375.325H853.475ZM953.628 444.641L934.392 433.53V323.587H950.478V430.214H970.377V444.641H953.628ZM999.792 410.646V431.043H1033.12V410.646H999.792ZM1002.94 445.47L983.706 434.359V407.33L1002.94 396.219H1033.12V376.154H991.998V361.727H1029.97L1049.21 372.838V445.47H1044.9L1033.12 438.671L1021.35 445.47H1002.94ZM1083.39 477.806L1097.82 440.827L1065.82 361.727H1081.9L1105.45 420.762H1105.78L1129.16 361.727H1145.25L1099.15 477.806H1083.39ZM1227.26 430.214V444.641H1180.99L1161.76 433.53V372.008L1180.99 360.898H1208.02L1227.26 372.008V408.822H1177.84V430.214H1227.26ZM1177.84 375.325V394.395H1211.17V375.325H1177.84ZM1300 376.154H1269.82V444.641H1253.74V361.727H1265.84L1269.82 368.526L1281.6 361.727H1300V376.154Z" fill="white"/>
</svg>
