<svg width="1500" height="725" viewBox="0 0 1500 725" fill="none" xmlns="http://www.w3.org/2000/svg">
<rect width="1500" height="725" fill="white"/>
<path d="M435 392.5V433.25L406 450H341V428.25H410.75V397.5H370L341 380.75V341.75L370 325H432.5V346.75H365.25V375.75H406L435 392.5ZM581.283 434.5L552.283 451.25H504.033L475.033 434.5V340.5L504.033 323.75H552.283L581.283 340.5V434.5ZM499.283 345.5V429.5H557.033V345.5H499.283ZM650.273 450L621.273 433.25V267.5H645.523V428.25H675.523V450H650.273ZM719.869 398.75V429.5H770.119V398.75H719.869ZM724.619 451.25L695.619 434.5V393.75L724.619 377H770.119V346.75H708.119V325H765.369L794.369 341.75V451.25H787.869L770.119 441L752.369 451.25H724.619ZM845.908 500L867.658 444.25L819.408 325H843.658L879.158 414H879.658L914.908 325H939.158L869.658 500H845.908ZM1062.8 428.25V450H993.047L964.047 433.25V340.5L993.047 323.75H1033.8L1062.8 340.5V396H988.297V428.25H1062.8ZM988.297 345.5V374.25H1038.55V345.5H988.297ZM1172.47 346.75H1126.97V450H1102.72V325H1120.97L1126.97 335.25L1144.72 325H1172.47V346.75Z" fill="#094C3D"/>
</svg>
