<svg width="820" height="212" viewBox="0 0 820 212" fill="none" xmlns="http://www.w3.org/2000/svg">
<rect width="398" height="94" rx="16" fill="white"/>
<rect x="10" y="10" width="74" height="74" rx="10" fill="#E5EFED"/>
<path d="M21.2 65L32.4 37H38.56L27.36 65H21.2ZM26.16 60.56V55.36H44.96V60.56H26.16ZM49.8 65H43.64L32.4 37H38.56L49.8 65ZM65.3122 58H65.8722C65.8722 59.04 65.8055 60.0267 65.6722 60.96C65.5389 61.8667 65.2322 62.6667 64.7522 63.36C64.2722 64.0533 63.5255 64.6 62.5122 65C61.5255 65.4 60.1655 65.6 58.4322 65.6C57.2322 65.6 56.0989 65.5067 55.0322 65.32C53.9922 65.1333 53.0722 64.8 52.2722 64.32C51.4989 63.84 50.8855 63.1867 50.4322 62.36C50.0055 61.5333 49.7922 60.4933 49.7922 59.24C49.7922 58.2 49.9789 57.32 50.3522 56.6C50.7522 55.88 51.3122 55.28 52.0322 54.8C52.7522 54.32 53.6322 53.9467 54.6722 53.68C55.7122 53.3867 56.8855 53.1733 58.1922 53.04L66.9522 52.24L67.3522 56L59.2322 56.8C58.6722 56.8533 58.1522 56.9333 57.6722 57.04C57.2189 57.1467 56.8322 57.2933 56.5122 57.48C56.1922 57.64 55.9389 57.8667 55.7522 58.16C55.5655 58.4267 55.4722 58.76 55.4722 59.16C55.4722 59.4533 55.5389 59.72 55.6722 59.96C55.8322 60.2 56.0722 60.4133 56.3922 60.6C56.7122 60.76 57.1122 60.88 57.5922 60.96C58.0722 61.04 58.6455 61.08 59.3122 61.08C60.3522 61.08 61.2455 60.9867 61.9922 60.8C62.7655 60.5867 63.3922 60.3333 63.8722 60.04C64.3522 59.7467 64.7122 59.4267 64.9522 59.08C65.1922 58.7067 65.3122 58.3467 65.3122 58ZM65.3122 52.32C65.3122 51.5467 65.1522 50.9467 64.8322 50.52C64.5122 50.0667 64.1122 49.72 63.6322 49.48C63.1522 49.24 62.6322 49.0933 62.0722 49.04C61.5122 48.96 60.9789 48.92 60.4722 48.92C59.9922 48.92 59.4722 48.9467 58.9122 49C58.3789 49.0533 57.8722 49.1867 57.3922 49.4C56.9389 49.5867 56.5655 49.88 56.2722 50.28C55.9789 50.68 55.8322 51.2267 55.8322 51.92H50.9122C50.9122 50.5333 51.1255 49.3733 51.5522 48.44C52.0055 47.48 52.6455 46.7067 53.4722 46.12C54.3255 45.5067 55.3522 45.0667 56.5522 44.8C57.7522 44.5333 59.0855 44.4 60.5522 44.4C62.2855 44.4 63.7789 44.5333 65.0322 44.8C66.3122 45.0667 67.3789 45.5333 68.2322 46.2C69.0855 46.8667 69.7122 47.7733 70.1122 48.92C70.5389 50.0667 70.7522 51.4933 70.7522 53.2V65H65.3122V52.32Z" fill="#202526"/>
<path d="M112.016 42.86C110.88 42.86 109.864 42.684 108.968 42.332C108.072 41.964 107.304 41.42 106.664 40.7C106.04 39.964 105.56 39.052 105.224 37.964C104.888 36.86 104.72 35.572 104.72 34.1C104.72 31.124 105.408 28.924 106.784 27.5C108.176 26.06 110.296 25.34 113.144 25.34C114.472 25.34 115.64 25.452 116.648 25.676C117.672 25.9 118.528 26.26 119.216 26.756C119.92 27.252 120.456 27.892 120.824 28.676C121.192 29.46 121.376 30.412 121.376 31.532H117.584C117.584 31.02 117.448 30.604 117.176 30.284C116.92 29.964 116.576 29.708 116.144 29.516C115.728 29.324 115.256 29.196 114.728 29.132C114.2 29.068 113.664 29.036 113.12 29.036C112.352 29.036 111.688 29.132 111.128 29.324C110.584 29.516 110.144 29.82 109.808 30.236C109.472 30.652 109.224 31.172 109.064 31.796C108.92 32.42 108.848 33.18 108.848 34.076C108.848 34.956 108.944 35.716 109.136 36.356C109.328 36.996 109.6 37.524 109.952 37.94C110.32 38.356 110.768 38.668 111.296 38.876C111.824 39.068 112.424 39.164 113.096 39.164C113.72 39.164 114.288 39.02 114.8 38.732C115.312 38.444 115.776 38.068 116.192 37.604C116.608 37.124 116.984 36.596 117.32 36.02C117.672 35.444 117.976 34.868 118.232 34.292L120.296 34.868C119.928 35.828 119.48 36.78 118.952 37.724C118.424 38.668 117.808 39.524 117.104 40.292C116.416 41.044 115.648 41.66 114.8 42.14C113.952 42.62 113.024 42.86 112.016 42.86ZM117.704 42.5V35.3H121.496V42.5H117.704ZM112.808 36.668V33.26H121.496V36.668H112.808ZM127.437 42.5H123.645V24.5H127.437V42.5ZM135.617 43.604L128.777 30.5H133.073L138.185 40.268L135.617 43.604ZM139.049 41.996C138.729 42.924 138.433 43.756 138.161 44.492C137.889 45.244 137.553 45.884 137.153 46.412C136.769 46.94 136.273 47.34 135.665 47.612C135.073 47.884 134.281 48.02 133.289 48.02C132.569 48.02 131.945 47.9 131.417 47.66C130.889 47.436 130.449 47.116 130.097 46.7C129.761 46.284 129.505 45.788 129.329 45.212C129.169 44.652 129.089 44.044 129.089 43.388H132.305C132.305 43.692 132.329 43.94 132.377 44.132C132.441 44.34 132.513 44.5 132.593 44.612C132.689 44.74 132.793 44.82 132.905 44.852C133.033 44.9 133.161 44.924 133.289 44.924C133.481 44.924 133.641 44.868 133.769 44.756C133.897 44.66 134.017 44.508 134.129 44.3C134.241 44.108 134.353 43.86 134.465 43.556C134.577 43.268 134.697 42.932 134.825 42.548L139.001 30.5H143.033L139.049 41.996ZM156.751 42.5H152.959V36.356C152.959 35.908 152.919 35.524 152.839 35.204C152.775 34.868 152.655 34.588 152.479 34.364C152.303 34.124 152.063 33.948 151.759 33.836C151.455 33.708 151.063 33.644 150.583 33.644C149.751 33.644 149.111 33.884 148.663 34.364C148.231 34.828 148.015 35.54 148.015 36.5V36.836H146.959V36.5C146.959 35.572 147.055 34.716 147.247 33.932C147.439 33.148 147.727 32.476 148.111 31.916C148.511 31.356 149.015 30.924 149.623 30.62C150.247 30.3 150.975 30.14 151.807 30.14C152.607 30.14 153.311 30.236 153.919 30.428C154.543 30.604 155.063 30.916 155.479 31.364C155.911 31.812 156.231 32.412 156.439 33.164C156.647 33.9 156.751 34.828 156.751 35.948V42.5ZM148.015 42.5H144.223V30.5H148.015V42.5ZM165.111 30.14C166.055 30.14 166.887 30.276 167.607 30.548C168.343 30.804 168.959 31.172 169.455 31.652C169.951 32.116 170.327 32.66 170.583 33.284C170.839 33.908 170.967 34.58 170.967 35.3H167.559C167.559 35.044 167.503 34.812 167.391 34.604C167.279 34.396 167.111 34.228 166.887 34.1C166.663 33.956 166.399 33.844 166.095 33.764C165.807 33.684 165.471 33.644 165.087 33.644C164.687 33.644 164.319 33.692 163.983 33.788C163.647 33.884 163.359 34.044 163.119 34.268C162.879 34.492 162.687 34.788 162.543 35.156C162.415 35.508 162.351 35.948 162.351 36.476C162.351 37.004 162.423 37.46 162.567 37.844C162.711 38.212 162.919 38.508 163.191 38.732C163.463 38.956 163.783 39.116 164.151 39.212C164.519 39.308 164.919 39.356 165.351 39.356C165.735 39.356 166.071 39.316 166.359 39.236C166.663 39.156 166.911 39.052 167.103 38.924C167.295 38.78 167.439 38.604 167.535 38.396C167.647 38.188 167.703 37.956 167.703 37.7H171.087C171.087 38.42 170.967 39.092 170.727 39.716C170.487 40.34 170.119 40.892 169.623 41.372C169.143 41.836 168.527 42.204 167.775 42.476C167.039 42.732 166.167 42.86 165.159 42.86C162.951 42.86 161.279 42.324 160.143 41.252C159.007 40.18 158.439 38.596 158.439 36.5C158.439 34.388 158.967 32.804 160.023 31.748C161.079 30.676 162.775 30.14 165.111 30.14ZM177.781 43.604L170.941 30.5H175.237L180.349 40.268L177.781 43.604ZM181.213 41.996C180.893 42.924 180.597 43.756 180.325 44.492C180.053 45.244 179.717 45.884 179.317 46.412C178.933 46.94 178.437 47.34 177.829 47.612C177.237 47.884 176.445 48.02 175.453 48.02C174.733 48.02 174.109 47.9 173.581 47.66C173.053 47.436 172.613 47.116 172.261 46.7C171.925 46.284 171.669 45.788 171.493 45.212C171.333 44.652 171.253 44.044 171.253 43.388H174.469C174.469 43.692 174.493 43.94 174.541 44.132C174.605 44.34 174.677 44.5 174.757 44.612C174.853 44.74 174.957 44.82 175.069 44.852C175.197 44.9 175.325 44.924 175.453 44.924C175.645 44.924 175.805 44.868 175.933 44.756C176.061 44.66 176.181 44.508 176.293 44.3C176.405 44.108 176.517 43.86 176.629 43.556C176.741 43.268 176.861 42.932 176.989 42.548L181.165 30.5H185.197L181.213 41.996ZM190.18 42.5H186.388V30.5H190.18V42.5ZM197.859 35.348H194.476C194.476 35.092 194.428 34.86 194.332 34.652C194.236 34.444 194.1 34.268 193.924 34.124C193.748 33.964 193.532 33.844 193.276 33.764C193.036 33.684 192.772 33.644 192.484 33.644C191.764 33.644 191.196 33.884 190.78 34.364C190.38 34.828 190.18 35.54 190.18 36.5V36.836H189.124V36.5C189.124 35.572 189.22 34.716 189.412 33.932C189.62 33.148 189.908 32.476 190.276 31.916C190.66 31.356 191.116 30.924 191.644 30.62C192.172 30.3 192.78 30.14 193.468 30.14C194.14 30.14 194.748 30.244 195.292 30.452C195.836 30.644 196.292 30.956 196.66 31.388C197.044 31.804 197.34 32.34 197.548 32.996C197.756 33.636 197.859 34.42 197.859 35.348Z" fill="#202526"/>
<path d="M110.06 63.16C109.26 63.0267 108.527 62.86 107.86 62.66C107.207 62.46 106.64 62.1933 106.16 61.86C105.68 61.5133 105.307 61.0867 105.04 60.58C104.787 60.0733 104.66 59.4467 104.66 58.7C104.66 57.0867 105.167 55.9333 106.18 55.24C107.207 54.5467 108.813 54.2 111 54.2C111.96 54.2 112.82 54.2867 113.58 54.46C114.34 54.62 114.987 54.8867 115.52 55.26C116.053 55.6333 116.46 56.1267 116.74 56.74C117.033 57.34 117.18 58.08 117.18 58.96H114.02C114.02 58.5867 113.927 58.2933 113.74 58.08C113.567 57.8533 113.327 57.6867 113.02 57.58C112.713 57.46 112.36 57.3867 111.96 57.36C111.56 57.32 111.14 57.3 110.7 57.3C110.233 57.3 109.833 57.3267 109.5 57.38C109.18 57.42 108.913 57.4933 108.7 57.6C108.487 57.6933 108.327 57.8133 108.22 57.96C108.127 58.1067 108.08 58.2733 108.08 58.46C108.08 58.66 108.14 58.8267 108.26 58.96C108.38 59.08 108.58 59.1867 108.86 59.28C109.14 59.3733 109.507 59.46 109.96 59.54C110.413 59.6067 110.967 59.6867 111.62 59.78C112.5 59.9133 113.293 60.0867 114 60.3C114.707 60.5 115.307 60.78 115.8 61.14C116.293 61.4867 116.673 61.9267 116.94 62.46C117.207 62.9933 117.34 63.6467 117.34 64.42C117.34 65.9667 116.82 67.0867 115.78 67.78C114.74 68.46 113.107 68.8 110.88 68.8C109.907 68.8 109.033 68.7133 108.26 68.54C107.487 68.38 106.827 68.1133 106.28 67.74C105.733 67.3667 105.313 66.88 105.02 66.28C104.74 65.6667 104.6 64.92 104.6 64.04H107.76C107.76 64.4133 107.853 64.7133 108.04 64.94C108.227 65.1533 108.48 65.32 108.8 65.44C109.12 65.56 109.487 65.64 109.9 65.68C110.327 65.7067 110.767 65.72 111.22 65.72C112.127 65.72 112.8 65.64 113.24 65.48C113.693 65.3067 113.92 65.0133 113.92 64.6C113.92 64.32 113.807 64.1 113.58 63.94C113.353 63.78 113.06 63.66 112.7 63.58C112.34 63.4867 111.927 63.4133 111.46 63.36C111.007 63.2933 110.54 63.2267 110.06 63.16ZM129.105 64V64.4H126.105V62.9C126.105 62.5533 126.052 62.2467 125.945 61.98C125.839 61.7 125.692 61.4733 125.505 61.3C125.332 61.1267 125.112 61 124.845 60.92C124.579 60.8267 124.285 60.78 123.965 60.78C123.659 60.78 123.372 60.84 123.105 60.96C122.852 61.0667 122.625 61.2333 122.425 61.46C122.225 61.6867 122.072 61.9733 121.965 62.32C121.859 62.6533 121.805 63.0467 121.805 63.5C121.805 64.0067 121.859 64.4333 121.965 64.78C122.072 65.1267 122.225 65.4067 122.425 65.62C122.639 65.8333 122.885 65.9867 123.165 66.08C123.459 66.1733 123.792 66.22 124.165 66.22C124.459 66.22 124.725 66.1933 124.965 66.14C125.219 66.0733 125.432 65.9933 125.605 65.9C125.779 65.7933 125.912 65.6733 126.005 65.54C126.112 65.3933 126.165 65.2467 126.165 65.1H128.985C128.985 66.2067 128.572 67.1 127.745 67.78C126.932 68.46 125.739 68.8 124.165 68.8C122.272 68.8 120.859 68.3533 119.925 67.46C119.005 66.5667 118.545 65.2467 118.545 63.5C118.545 61.7933 118.992 60.4867 119.885 59.58C120.792 58.66 122.099 58.2 123.805 58.2C125.712 58.2 127.072 58.68 127.885 59.64C128.699 60.6 129.105 62.0533 129.105 64ZM119.885 64.4V62.24H128.185V64.4H119.885ZM140.443 68.5H137.283V63.24C137.283 62.9067 137.256 62.6133 137.203 62.36C137.15 62.0933 137.063 61.8733 136.943 61.7C136.823 61.5133 136.656 61.3733 136.443 61.28C136.23 61.1733 135.97 61.12 135.663 61.12C135.076 61.12 134.63 61.32 134.323 61.72C134.016 62.1067 133.863 62.7 133.863 63.5V63.78H133.043V63.5C133.043 62.7267 133.11 62.0133 133.243 61.36C133.39 60.7067 133.623 60.1467 133.943 59.68C134.276 59.2133 134.69 58.8533 135.183 58.6C135.676 58.3333 136.27 58.2 136.963 58.2C137.51 58.2 138.003 58.2867 138.443 58.46C138.883 58.6333 139.25 58.92 139.543 59.32C139.836 59.7067 140.056 60.22 140.203 60.86C140.363 61.4867 140.443 62.2667 140.443 63.2V68.5ZM133.863 68.5H130.703V58.5H133.863V68.5ZM147.043 68.5H143.863V63.38C143.863 63.0067 143.836 62.6867 143.783 62.42C143.73 62.14 143.643 61.9067 143.523 61.72C143.403 61.52 143.236 61.3733 143.023 61.28C142.823 61.1733 142.563 61.12 142.243 61.12C141.95 61.12 141.69 61.1733 141.463 61.28C141.236 61.3733 141.05 61.5133 140.903 61.7C140.756 61.8733 140.643 62.0933 140.563 62.36C140.483 62.6133 140.443 62.9067 140.443 63.24V63.78H139.063V63.2C139.063 62.5067 139.123 61.86 139.243 61.26C139.363 60.6467 139.57 60.1133 139.863 59.66C140.156 59.2067 140.536 58.8533 141.003 58.6C141.483 58.3333 142.076 58.2 142.783 58.2C143.516 58.2 144.15 58.28 144.683 58.44C145.216 58.5867 145.656 58.8467 146.003 59.22C146.363 59.5933 146.623 60.0933 146.783 60.72C146.956 61.3333 147.043 62.1067 147.043 63.04V68.5ZM148.848 68.5V58.5H152.008V68.5H148.848ZM148.588 55.46C148.588 54.8333 148.734 54.3733 149.028 54.08C149.321 53.7733 149.788 53.62 150.428 53.62C151.081 53.62 151.548 53.7733 151.828 54.08C152.121 54.3733 152.268 54.8333 152.268 55.46C152.268 56.0867 152.121 56.5533 151.828 56.86C151.548 57.1533 151.081 57.3 150.428 57.3C149.788 57.3 149.321 57.1533 149.028 56.86C148.734 56.5533 148.588 56.0867 148.588 55.46ZM157.164 68.5H154.004V53.5H157.164V68.5ZM164.444 63.5C164.444 64.3667 164.331 65.1333 164.104 65.8C163.877 66.4533 163.564 67.0067 163.164 67.46C162.764 67.9 162.291 68.2333 161.744 68.46C161.197 68.6867 160.611 68.8 159.984 68.8C159.277 68.8 158.704 68.66 158.264 68.38C157.824 68.0867 157.477 67.7 157.224 67.22C156.971 66.74 156.797 66.18 156.704 65.54C156.624 64.9 156.584 64.22 156.584 63.5C156.584 62.7 156.631 61.9733 156.724 61.32C156.831 60.6667 157.011 60.1133 157.264 59.66C157.517 59.1933 157.864 58.8333 158.304 58.58C158.757 58.3267 159.337 58.2 160.044 58.2C160.711 58.2 161.317 58.3133 161.864 58.54C162.411 58.7667 162.871 59.1067 163.244 59.56C163.631 60 163.924 60.5533 164.124 61.22C164.337 61.8733 164.444 62.6333 164.444 63.5ZM161.184 63.5C161.184 62.7 161.031 62.1067 160.724 61.72C160.431 61.32 159.917 61.12 159.184 61.12C158.517 61.12 158.011 61.32 157.664 61.72C157.331 62.1067 157.164 62.7 157.164 63.5C157.164 64.2867 157.331 64.88 157.664 65.28C158.011 65.68 158.517 65.88 159.184 65.88C159.504 65.88 159.784 65.8333 160.024 65.74C160.277 65.6333 160.491 65.48 160.664 65.28C160.837 65.08 160.964 64.8333 161.044 64.54C161.137 64.2333 161.184 63.8867 161.184 63.5ZM165.635 63.5C165.635 61.7533 166.102 60.4333 167.035 59.54C167.968 58.6467 169.395 58.2 171.315 58.2C173.248 58.2 174.682 58.6467 175.615 59.54C176.562 60.4333 177.035 61.7533 177.035 63.5C177.035 65.2467 176.562 66.5667 175.615 67.46C174.682 68.3533 173.248 68.8 171.315 68.8C169.395 68.8 167.968 68.3533 167.035 67.46C166.102 66.5667 165.635 65.2467 165.635 63.5ZM168.895 63.5C168.895 64.2867 169.095 64.88 169.495 65.28C169.895 65.68 170.502 65.88 171.315 65.88C172.142 65.88 172.755 65.68 173.155 65.28C173.568 64.88 173.775 64.2867 173.775 63.5C173.775 62.7133 173.568 62.12 173.155 61.72C172.755 61.32 172.142 61.12 171.315 61.12C170.435 61.12 169.808 61.32 169.435 61.72C169.075 62.12 168.895 62.7133 168.895 63.5ZM181.793 68.5H178.633V53.5H181.793V68.5ZM191.069 68.5V53.5H194.229V68.5H191.069ZM183.389 63.5C183.389 61.7533 183.802 60.4333 184.629 59.54C185.469 58.6467 186.596 58.2 188.009 58.2C188.756 58.2 189.362 58.3267 189.829 58.58C190.309 58.8333 190.682 59.1933 190.949 59.66C191.229 60.1133 191.416 60.6667 191.509 61.32C191.616 61.9733 191.669 62.7 191.669 63.5C191.669 64.22 191.622 64.9 191.529 65.54C191.436 66.18 191.256 66.74 190.989 67.22C190.736 67.7 190.376 68.0867 189.909 68.38C189.442 68.66 188.836 68.8 188.089 68.8C187.422 68.8 186.802 68.6867 186.229 68.46C185.656 68.2333 185.156 67.9 184.729 67.46C184.316 67.0067 183.989 66.4533 183.749 65.8C183.509 65.1333 183.389 64.3667 183.389 63.5ZM186.649 63.5C186.649 64.2867 186.829 64.88 187.189 65.28C187.562 65.68 188.116 65.88 188.849 65.88C189.596 65.88 190.149 65.68 190.509 65.28C190.882 64.88 191.069 64.2867 191.069 63.5C191.069 62.7 190.882 62.1067 190.509 61.72C190.149 61.32 189.596 61.12 188.849 61.12C188.436 61.12 188.089 61.1733 187.809 61.28C187.529 61.3733 187.302 61.52 187.129 61.72C186.956 61.92 186.829 62.1667 186.749 62.46C186.682 62.7533 186.649 63.1 186.649 63.5Z" fill="#202526"/>
<rect x="422" width="398" height="94" rx="16" fill="white"/>
<rect x="432" y="10" width="74" height="74" rx="10" fill="#E5EFED"/>
<path d="M443.2 65L454.4 37H460.56L449.36 65H443.2ZM448.16 60.56V55.36H466.96V60.56H448.16ZM471.8 65H465.64L454.4 37H460.56L471.8 65ZM487.312 58H487.872C487.872 59.04 487.806 60.0267 487.672 60.96C487.539 61.8667 487.232 62.6667 486.752 63.36C486.272 64.0533 485.526 64.6 484.512 65C483.526 65.4 482.166 65.6 480.432 65.6C479.232 65.6 478.099 65.5067 477.032 65.32C475.992 65.1333 475.072 64.8 474.272 64.32C473.499 63.84 472.886 63.1867 472.432 62.36C472.006 61.5333 471.792 60.4933 471.792 59.24C471.792 58.2 471.979 57.32 472.352 56.6C472.752 55.88 473.312 55.28 474.032 54.8C474.752 54.32 475.632 53.9467 476.672 53.68C477.712 53.3867 478.886 53.1733 480.192 53.04L488.952 52.24L489.352 56L481.232 56.8C480.672 56.8533 480.152 56.9333 479.672 57.04C479.219 57.1467 478.832 57.2933 478.512 57.48C478.192 57.64 477.939 57.8667 477.752 58.16C477.566 58.4267 477.472 58.76 477.472 59.16C477.472 59.4533 477.539 59.72 477.672 59.96C477.832 60.2 478.072 60.4133 478.392 60.6C478.712 60.76 479.112 60.88 479.592 60.96C480.072 61.04 480.646 61.08 481.312 61.08C482.352 61.08 483.246 60.9867 483.992 60.8C484.766 60.5867 485.392 60.3333 485.872 60.04C486.352 59.7467 486.712 59.4267 486.952 59.08C487.192 58.7067 487.312 58.3467 487.312 58ZM487.312 52.32C487.312 51.5467 487.152 50.9467 486.832 50.52C486.512 50.0667 486.112 49.72 485.632 49.48C485.152 49.24 484.632 49.0933 484.072 49.04C483.512 48.96 482.979 48.92 482.472 48.92C481.992 48.92 481.472 48.9467 480.912 49C480.379 49.0533 479.872 49.1867 479.392 49.4C478.939 49.5867 478.566 49.88 478.272 50.28C477.979 50.68 477.832 51.2267 477.832 51.92H472.912C472.912 50.5333 473.126 49.3733 473.552 48.44C474.006 47.48 474.646 46.7067 475.472 46.12C476.326 45.5067 477.352 45.0667 478.552 44.8C479.752 44.5333 481.086 44.4 482.552 44.4C484.286 44.4 485.779 44.5333 487.032 44.8C488.312 45.0667 489.379 45.5333 490.232 46.2C491.086 46.8667 491.712 47.7733 492.112 48.92C492.539 50.0667 492.752 51.4933 492.752 53.2V65H487.312V52.32Z" fill="#202526"/>
<path d="M534.16 42.86C532.992 42.86 531.944 42.684 531.016 42.332C530.104 41.964 529.328 41.42 528.688 40.7C528.064 39.964 527.576 39.052 527.224 37.964C526.888 36.86 526.72 35.572 526.72 34.1C526.72 31.124 527.4 28.924 528.76 27.5C530.136 26.06 532.248 25.34 535.096 25.34C536.408 25.34 537.568 25.452 538.576 25.676C539.584 25.9 540.432 26.26 541.12 26.756C541.824 27.252 542.352 27.892 542.704 28.676C543.072 29.46 543.256 30.412 543.256 31.532H539.968C539.968 30.908 539.824 30.404 539.536 30.02C539.248 29.62 538.872 29.316 538.408 29.108C537.944 28.884 537.416 28.732 536.824 28.652C536.232 28.572 535.64 28.532 535.048 28.532C534.184 28.532 533.448 28.644 532.84 28.868C532.232 29.076 531.736 29.404 531.352 29.852C530.984 30.3 530.712 30.876 530.536 31.58C530.36 32.268 530.272 33.1 530.272 34.076C530.272 35.052 530.376 35.892 530.584 36.596C530.808 37.3 531.12 37.884 531.52 38.348C531.936 38.796 532.432 39.132 533.008 39.356C533.6 39.564 534.264 39.668 535 39.668C535.688 39.668 536.304 39.508 536.848 39.188C537.392 38.868 537.888 38.46 538.336 37.964C538.784 37.452 539.184 36.884 539.536 36.26C539.888 35.636 540.208 35.012 540.496 34.388L542.32 34.892C541.952 35.836 541.512 36.78 541 37.724C540.488 38.668 539.888 39.524 539.2 40.292C538.528 41.044 537.768 41.66 536.92 42.14C536.088 42.62 535.168 42.86 534.16 42.86ZM540.088 42.5V35.3H543.376V42.5H540.088ZM534.904 36.452V33.476H543.376V36.452H534.904ZM548.816 42.5H545.528V24.5H548.816V42.5ZM557.007 43.58L550.143 30.5H553.863L559.215 40.676L557.007 43.58ZM559.911 42.044C559.591 42.972 559.295 43.804 559.023 44.54C558.751 45.276 558.423 45.9 558.039 46.412C557.671 46.94 557.199 47.34 556.623 47.612C556.063 47.884 555.319 48.02 554.391 48.02C553.703 48.02 553.111 47.9 552.615 47.66C552.119 47.436 551.703 47.116 551.367 46.7C551.047 46.284 550.807 45.788 550.647 45.212C550.503 44.652 550.431 44.044 550.431 43.388H553.239C553.239 43.772 553.271 44.084 553.335 44.324C553.399 44.58 553.479 44.78 553.575 44.924C553.687 45.068 553.815 45.164 553.959 45.212C554.103 45.276 554.247 45.308 554.391 45.308C554.615 45.308 554.807 45.244 554.967 45.116C555.127 45.004 555.271 44.836 555.399 44.612C555.543 44.404 555.679 44.14 555.807 43.82C555.935 43.516 556.063 43.172 556.191 42.788L560.463 30.5H563.919L559.911 42.044ZM577.482 42.5H574.194V36.188C574.194 35.724 574.154 35.308 574.074 34.94C573.994 34.556 573.85 34.236 573.642 33.98C573.434 33.724 573.146 33.532 572.778 33.404C572.426 33.26 571.978 33.188 571.434 33.188C570.442 33.188 569.69 33.468 569.178 34.028C568.666 34.572 568.41 35.396 568.41 36.5V36.812H567.378V36.5C567.378 35.556 567.474 34.7 567.666 33.932C567.858 33.148 568.154 32.476 568.554 31.916C568.954 31.356 569.466 30.924 570.09 30.62C570.73 30.3 571.506 30.14 572.418 30.14C573.25 30.14 573.978 30.244 574.602 30.452C575.242 30.644 575.77 30.964 576.186 31.412C576.618 31.86 576.938 32.452 577.146 33.188C577.37 33.908 577.482 34.804 577.482 35.876V42.5ZM568.41 42.5H565.122V30.5H568.41V42.5ZM585.773 30.14C586.717 30.14 587.549 30.276 588.269 30.548C589.005 30.804 589.621 31.172 590.117 31.652C590.613 32.116 590.981 32.66 591.221 33.284C591.477 33.908 591.605 34.58 591.605 35.3H588.653C588.653 34.98 588.589 34.692 588.461 34.436C588.333 34.18 588.141 33.964 587.885 33.788C587.645 33.596 587.341 33.452 586.973 33.356C586.621 33.244 586.213 33.188 585.749 33.188C585.269 33.188 584.837 33.244 584.453 33.356C584.069 33.468 583.733 33.66 583.445 33.932C583.173 34.188 582.957 34.524 582.797 34.94C582.653 35.356 582.581 35.868 582.581 36.476C582.581 37.1 582.661 37.628 582.821 38.06C582.997 38.492 583.237 38.836 583.541 39.092C583.845 39.348 584.197 39.532 584.597 39.644C585.013 39.756 585.461 39.812 585.941 39.812C586.421 39.812 586.837 39.764 587.189 39.668C587.541 39.556 587.829 39.412 588.053 39.236C588.293 39.044 588.469 38.82 588.581 38.564C588.709 38.308 588.773 38.02 588.773 37.7H591.725C591.725 38.42 591.605 39.092 591.365 39.716C591.125 40.34 590.757 40.892 590.261 41.372C589.781 41.836 589.173 42.204 588.437 42.476C587.701 42.732 586.829 42.86 585.821 42.86C583.645 42.86 581.989 42.324 580.853 41.252C579.733 40.18 579.173 38.596 579.173 36.5C579.173 34.388 579.693 32.804 580.733 31.748C581.789 30.676 583.469 30.14 585.773 30.14ZM598.586 43.58L591.722 30.5H595.442L600.794 40.676L598.586 43.58ZM601.49 42.044C601.17 42.972 600.874 43.804 600.602 44.54C600.33 45.276 600.002 45.9 599.618 46.412C599.25 46.94 598.778 47.34 598.202 47.612C597.642 47.884 596.898 48.02 595.97 48.02C595.282 48.02 594.69 47.9 594.194 47.66C593.698 47.436 593.282 47.116 592.946 46.7C592.626 46.284 592.386 45.788 592.226 45.212C592.082 44.652 592.01 44.044 592.01 43.388H594.818C594.818 43.772 594.85 44.084 594.914 44.324C594.978 44.58 595.058 44.78 595.154 44.924C595.266 45.068 595.394 45.164 595.538 45.212C595.682 45.276 595.826 45.308 595.97 45.308C596.194 45.308 596.386 45.244 596.546 45.116C596.706 45.004 596.85 44.836 596.978 44.612C597.122 44.404 597.258 44.14 597.386 43.82C597.514 43.516 597.642 43.172 597.77 42.788L602.042 30.5H605.498L601.49 42.044ZM609.988 42.5H606.7V30.5H609.988V42.5ZM617.86 35.348H614.908C614.908 35.028 614.86 34.74 614.764 34.484C614.668 34.212 614.524 33.98 614.332 33.788C614.14 33.596 613.9 33.452 613.612 33.356C613.324 33.244 613.004 33.188 612.652 33.188C611.804 33.188 611.148 33.468 610.684 34.028C610.22 34.572 609.988 35.396 609.988 36.5V36.812H608.956V36.5C608.956 35.556 609.052 34.7 609.244 33.932C609.452 33.148 609.74 32.476 610.108 31.916C610.492 31.356 610.956 30.924 611.5 30.62C612.06 30.3 612.7 30.14 613.42 30.14C614.124 30.14 614.748 30.244 615.292 30.452C615.852 30.66 616.316 30.98 616.684 31.412C617.068 31.828 617.356 32.364 617.548 33.02C617.756 33.676 617.86 34.452 617.86 35.348Z" fill="#202526"/>
<path d="M527 68.5V54.5H529.86V68.5H527ZM527.84 56.4L529.86 54.5L536.12 66.24V68.5H534.28L527.84 56.4ZM543.38 68.5H540.52V54.5H543.38V68.5ZM542.54 56.4L536.12 68.5H534.28V66.24L540.52 54.5L542.54 56.4ZM555.519 63.9V64.3H552.879V63C552.879 62.56 552.819 62.18 552.699 61.86C552.579 61.54 552.406 61.28 552.179 61.08C551.966 60.8667 551.706 60.7133 551.399 60.62C551.092 60.5133 550.746 60.46 550.359 60.46C549.999 60.46 549.659 60.5267 549.339 60.66C549.032 60.78 548.766 60.9667 548.539 61.22C548.312 61.4733 548.132 61.7933 547.999 62.18C547.879 62.5533 547.819 62.9933 547.819 63.5C547.819 64.0733 547.879 64.5533 547.999 64.94C548.119 65.3267 548.299 65.64 548.539 65.88C548.779 66.1067 549.072 66.2733 549.419 66.38C549.766 66.4867 550.159 66.54 550.599 66.54C550.932 66.54 551.239 66.5 551.519 66.42C551.812 66.34 552.059 66.24 552.259 66.12C552.472 65.9867 552.632 65.8333 552.739 65.66C552.859 65.4733 552.919 65.2867 552.919 65.1H555.399C555.399 66.2067 554.986 67.1 554.159 67.78C553.346 68.46 552.152 68.8 550.579 68.8C548.686 68.8 547.279 68.3533 546.359 67.46C545.439 66.5667 544.979 65.2467 544.979 63.5C544.979 61.7933 545.426 60.4867 546.319 59.58C547.226 58.66 548.526 58.2 550.219 58.2C552.112 58.2 553.466 58.6733 554.279 59.62C555.106 60.5667 555.519 61.9933 555.519 63.9ZM546.179 64.3V62.36H554.599V64.3H546.179ZM564.677 68.5V53.5H567.417V68.5H564.677ZM556.717 63.5C556.717 61.7533 557.137 60.4333 557.977 59.54C558.817 58.6467 559.964 58.2 561.417 58.2C562.204 58.2 562.844 58.3267 563.337 58.58C563.844 58.8333 564.244 59.1933 564.537 59.66C564.831 60.1133 565.031 60.6667 565.137 61.32C565.244 61.9733 565.297 62.7 565.297 63.5C565.297 64.22 565.244 64.9 565.137 65.54C565.044 66.18 564.857 66.74 564.577 67.22C564.297 67.7 563.911 68.0867 563.417 68.38C562.924 68.66 562.284 68.8 561.497 68.8C560.817 68.8 560.184 68.6867 559.597 68.46C559.011 68.2333 558.504 67.9 558.077 67.46C557.651 67.0067 557.317 66.4533 557.077 65.8C556.837 65.1333 556.717 64.3667 556.717 63.5ZM559.557 63.5C559.557 64.4067 559.771 65.0933 560.197 65.56C560.624 66.0267 561.257 66.26 562.097 66.26C562.964 66.26 563.611 66.0267 564.037 65.56C564.464 65.0933 564.677 64.4067 564.677 63.5C564.677 62.58 564.464 61.8933 564.037 61.44C563.611 60.9733 562.964 60.74 562.097 60.74C561.617 60.74 561.211 60.8 560.877 60.92C560.557 61.0267 560.297 61.2 560.097 61.44C559.897 61.6667 559.757 61.9533 559.677 62.3C559.597 62.6333 559.557 63.0333 559.557 63.5ZM569.422 68.5V58.5H572.162V68.5H569.422ZM569.122 55.46C569.122 54.8867 569.249 54.4667 569.502 54.2C569.769 53.9333 570.195 53.8 570.782 53.8C571.382 53.8 571.809 53.9333 572.062 54.2C572.329 54.4667 572.462 54.8867 572.462 55.46C572.462 56.02 572.329 56.44 572.062 56.72C571.809 56.9867 571.382 57.12 570.782 57.12C570.195 57.12 569.769 56.9867 569.502 56.72C569.249 56.44 569.122 56.02 569.122 55.46ZM573.968 58.5H576.708V63.76C576.708 64.1467 576.741 64.5 576.808 64.82C576.875 65.1267 576.995 65.3867 577.168 65.6C577.341 65.8133 577.575 65.98 577.868 66.1C578.175 66.2067 578.555 66.26 579.008 66.26C579.835 66.26 580.461 66.0333 580.888 65.58C581.315 65.1133 581.528 64.42 581.528 63.5V63.24H582.388V63.5C582.388 64.2867 582.308 65.0067 582.148 65.66C581.988 66.3 581.741 66.8533 581.408 67.32C581.075 67.7867 580.641 68.1533 580.108 68.42C579.588 68.6733 578.948 68.8 578.188 68.8C577.495 68.8 576.881 68.7133 576.348 68.54C575.828 68.38 575.388 68.1133 575.028 67.74C574.681 67.3667 574.415 66.88 574.228 66.28C574.055 65.6667 573.968 64.9133 573.968 64.02V58.5ZM581.528 58.5H584.268V68.5H581.528V58.5ZM595.777 68.5H593.037V62.98C593.037 62.66 593.004 62.3667 592.937 62.1C592.884 61.82 592.784 61.58 592.637 61.38C592.504 61.18 592.311 61.0267 592.057 60.92C591.817 60.8 591.504 60.74 591.117 60.74C590.424 60.74 589.897 60.9733 589.537 61.44C589.191 61.8933 589.017 62.58 589.017 63.5V63.76H588.197V63.5C588.197 62.7133 588.271 62 588.417 61.36C588.564 60.7067 588.797 60.1467 589.117 59.68C589.451 59.2133 589.864 58.8533 590.357 58.6C590.864 58.3333 591.471 58.2 592.177 58.2C592.764 58.2 593.277 58.2933 593.717 58.48C594.171 58.6533 594.544 58.9333 594.837 59.32C595.144 59.6933 595.377 60.1733 595.537 60.76C595.697 61.3467 595.777 62.0533 595.777 62.88V68.5ZM589.017 68.5H586.277V58.5H589.017V68.5ZM602.537 68.5H599.817V63.24C599.817 62.8533 599.784 62.5067 599.717 62.2C599.664 61.88 599.564 61.6133 599.417 61.4C599.271 61.1867 599.071 61.0267 598.817 60.92C598.577 60.8 598.271 60.74 597.897 60.74C597.537 60.74 597.224 60.8 596.957 60.92C596.704 61.0267 596.491 61.18 596.317 61.38C596.144 61.58 596.011 61.82 595.917 62.1C595.824 62.3667 595.777 62.6667 595.777 63V63.76H594.477V62.88C594.477 62.28 594.537 61.7 594.657 61.14C594.777 60.5667 594.984 60.0667 595.277 59.64C595.584 59.2 595.984 58.8533 596.477 58.6C596.971 58.3333 597.584 58.2 598.317 58.2C599.051 58.2 599.684 58.2867 600.217 58.46C600.751 58.62 601.191 58.8867 601.537 59.26C601.884 59.6333 602.137 60.1267 602.297 60.74C602.457 61.34 602.537 62.0867 602.537 62.98V68.5Z" fill="#202526"/>
<rect y="118" width="398" height="94" rx="16" fill="white"/>
<rect x="10" y="128" width="74" height="74" rx="10" fill="#E5EFED"/>
<path d="M22.2 183L33.96 155H38.16L26.4 183H22.2ZM26.6 177.76V174.16H45.4V177.76H26.6ZM49.88 183H45.68L33.96 155H38.16L49.88 183ZM66.1738 176H66.7338C66.7338 176.987 66.6671 177.947 66.5338 178.88C66.4004 179.787 66.0671 180.6 65.5338 181.32C65.0004 182.013 64.2004 182.573 63.1338 183C62.0938 183.4 60.6538 183.6 58.8138 183.6C57.4804 183.6 56.2671 183.507 55.1738 183.32C54.0804 183.133 53.1471 182.8 52.3738 182.32C51.6004 181.84 50.9871 181.213 50.5338 180.44C50.1071 179.64 49.8938 178.64 49.8938 177.44C49.8938 176.453 50.0804 175.6 50.4538 174.88C50.8538 174.16 51.4271 173.547 52.1738 173.04C52.9471 172.507 53.9071 172.08 55.0538 171.76C56.2004 171.44 57.5338 171.2 59.0538 171.04L67.1338 170.16L67.5338 172.96L59.4138 173.8C58.6671 173.88 57.9604 174 57.2938 174.16C56.6271 174.32 56.0271 174.547 55.4938 174.84C54.9871 175.107 54.5738 175.453 54.2538 175.88C53.9604 176.28 53.8138 176.773 53.8138 177.36C53.8138 177.813 53.8938 178.227 54.0538 178.6C54.2404 178.947 54.5338 179.253 54.9338 179.52C55.3604 179.76 55.9204 179.96 56.6138 180.12C57.3071 180.253 58.1738 180.32 59.2138 180.32C60.5738 180.32 61.6938 180.173 62.5738 179.88C63.4804 179.587 64.2004 179.227 64.7338 178.8C65.2671 178.347 65.6404 177.867 65.8538 177.36C66.0671 176.853 66.1738 176.4 66.1738 176ZM66.1338 170.2C66.1338 169.133 65.9338 168.307 65.5338 167.72C65.1604 167.107 64.6804 166.653 64.0938 166.36C63.5071 166.067 62.8538 165.88 62.1338 165.8C61.4404 165.72 60.8004 165.68 60.2138 165.68C59.5471 165.68 58.8804 165.72 58.2138 165.8C57.5471 165.853 56.9338 166.027 56.3738 166.32C55.8138 166.587 55.3471 167.013 54.9737 167.6C54.6271 168.16 54.4538 168.933 54.4538 169.92H50.9738C50.9738 168.587 51.1871 167.453 51.6138 166.52C52.0404 165.56 52.6538 164.773 53.4538 164.16C54.2538 163.547 55.2138 163.107 56.3338 162.84C57.4804 162.547 58.7604 162.4 60.1738 162.4C61.8004 162.4 63.2138 162.56 64.4138 162.88C65.6404 163.173 66.6538 163.653 67.4538 164.32C68.2538 164.96 68.8538 165.8 69.2538 166.84C69.6804 167.88 69.8938 169.147 69.8938 170.64V183H66.1338V170.2Z" fill="#202526"/>
<path d="M112.304 160.86C111.104 160.86 110.032 160.684 109.088 160.332C108.16 159.964 107.368 159.42 106.712 158.7C106.072 157.964 105.576 157.044 105.224 155.94C104.888 154.836 104.72 153.548 104.72 152.076C104.72 149.1 105.4 146.9 106.76 145.476C108.12 144.052 110.216 143.34 113.048 143.34C114.344 143.34 115.488 143.452 116.48 143.676C117.488 143.9 118.336 144.26 119.024 144.756C119.712 145.252 120.232 145.892 120.584 146.676C120.952 147.46 121.136 148.412 121.136 149.532H118.376C118.376 148.796 118.216 148.204 117.896 147.756C117.576 147.292 117.16 146.932 116.648 146.676C116.136 146.42 115.552 146.252 114.896 146.172C114.256 146.076 113.608 146.028 112.952 146.028C112.008 146.028 111.2 146.148 110.528 146.388C109.872 146.612 109.336 146.972 108.92 147.468C108.504 147.964 108.2 148.588 108.008 149.34C107.816 150.092 107.72 150.996 107.72 152.052C107.72 153.124 107.84 154.044 108.08 154.812C108.32 155.58 108.656 156.212 109.088 156.708C109.536 157.204 110.08 157.572 110.72 157.812C111.376 158.036 112.112 158.148 112.928 158.148C113.664 158.148 114.32 157.98 114.896 157.644C115.488 157.308 116.016 156.868 116.48 156.324C116.944 155.78 117.36 155.172 117.728 154.5C118.112 153.812 118.448 153.132 118.736 152.46L120.344 152.916C119.992 153.844 119.568 154.78 119.072 155.724C118.576 156.668 117.992 157.524 117.32 158.292C116.664 159.044 115.92 159.66 115.088 160.14C114.256 160.62 113.328 160.86 112.304 160.86ZM118.496 160.5V153.3H121.256V160.5H118.496ZM112.976 154.212V151.692H121.256V154.212H112.976ZM126.171 160.5H123.411V142.5H126.171V160.5ZM134.375 161.532L127.463 148.5H130.583L136.223 159.06L134.375 161.532ZM136.727 160.092C136.407 161.02 136.111 161.844 135.839 162.564C135.567 163.3 135.247 163.924 134.879 164.436C134.527 164.948 134.079 165.34 133.535 165.612C133.007 165.884 132.311 166.02 131.447 166.02C130.791 166.02 130.231 165.9 129.767 165.66C129.303 165.436 128.919 165.116 128.615 164.7C128.311 164.284 128.087 163.788 127.943 163.212C127.799 162.652 127.727 162.044 127.727 161.388H130.127C130.127 161.852 130.159 162.228 130.223 162.516C130.303 162.82 130.399 163.06 130.511 163.236C130.639 163.412 130.783 163.524 130.943 163.572C131.119 163.636 131.295 163.668 131.471 163.668C131.727 163.668 131.951 163.604 132.143 163.476C132.335 163.348 132.511 163.164 132.671 162.924C132.831 162.7 132.975 162.42 133.103 162.084C133.231 161.764 133.367 161.404 133.511 161.004L137.855 148.5H140.783L136.727 160.092ZM154.165 160.5H151.405V154.044C151.405 153.532 151.357 153.076 151.261 152.676C151.165 152.26 150.997 151.908 150.757 151.62C150.533 151.332 150.213 151.108 149.797 150.948C149.381 150.788 148.853 150.708 148.213 150.708C147.077 150.708 146.213 151.028 145.621 151.668C145.029 152.292 144.733 153.228 144.733 154.476V154.764H143.773V154.5C143.773 153.556 143.861 152.692 144.037 151.908C144.213 151.124 144.501 150.452 144.901 149.892C145.317 149.332 145.853 148.9 146.509 148.596C147.181 148.292 148.005 148.14 148.981 148.14C149.845 148.14 150.597 148.244 151.237 148.452C151.893 148.66 152.437 148.988 152.869 149.436C153.301 149.884 153.621 150.468 153.829 151.188C154.053 151.908 154.165 152.78 154.165 153.804V160.5ZM144.733 160.5H141.973V148.5H144.733V160.5ZM162.365 148.14C163.309 148.14 164.141 148.276 164.861 148.548C165.597 148.804 166.213 149.172 166.709 149.652C167.205 150.116 167.573 150.66 167.813 151.284C168.069 151.908 168.197 152.58 168.197 153.3H165.677C165.677 152.916 165.605 152.572 165.461 152.268C165.333 151.948 165.125 151.676 164.837 151.452C164.549 151.212 164.197 151.028 163.781 150.9C163.365 150.772 162.885 150.708 162.341 150.708C161.797 150.708 161.301 150.772 160.853 150.9C160.421 151.028 160.045 151.244 159.725 151.548C159.405 151.852 159.157 152.244 158.981 152.724C158.805 153.188 158.717 153.764 158.717 154.452C158.717 155.172 158.813 155.78 159.005 156.276C159.197 156.756 159.461 157.148 159.797 157.452C160.149 157.74 160.549 157.948 160.997 158.076C161.461 158.204 161.957 158.268 162.485 158.268C163.061 158.268 163.549 158.204 163.949 158.076C164.365 157.948 164.701 157.772 164.957 157.548C165.229 157.324 165.429 157.052 165.557 156.732C165.701 156.412 165.773 156.068 165.773 155.7H168.293C168.293 156.42 168.173 157.092 167.933 157.716C167.693 158.34 167.333 158.892 166.853 159.372C166.373 159.836 165.765 160.204 165.029 160.476C164.293 160.732 163.421 160.86 162.413 160.86C160.269 160.86 158.637 160.324 157.517 159.252C156.397 158.18 155.837 156.596 155.837 154.5C155.837 152.388 156.357 150.804 157.397 149.748C158.437 148.676 160.093 148.14 162.365 148.14ZM175.321 161.532L168.409 148.5H171.529L177.169 159.06L175.321 161.532ZM177.673 160.092C177.353 161.02 177.057 161.844 176.785 162.564C176.513 163.3 176.193 163.924 175.825 164.436C175.473 164.948 175.025 165.34 174.48 165.612C173.953 165.884 173.257 166.02 172.393 166.02C171.737 166.02 171.177 165.9 170.713 165.66C170.249 165.436 169.865 165.116 169.561 164.7C169.257 164.284 169.032 163.788 168.889 163.212C168.745 162.652 168.673 162.044 168.673 161.388H171.073C171.073 161.852 171.105 162.228 171.169 162.516C171.249 162.82 171.345 163.06 171.457 163.236C171.585 163.412 171.729 163.524 171.889 163.572C172.065 163.636 172.241 163.668 172.417 163.668C172.673 163.668 172.897 163.604 173.089 163.476C173.281 163.348 173.457 163.164 173.617 162.924C173.777 162.7 173.921 162.42 174.049 162.084C174.177 161.764 174.313 161.404 174.457 161.004L178.801 148.5H181.729L177.673 160.092ZM185.679 160.5H182.919V148.5H185.679V160.5ZM193.767 153.348H191.247C191.247 152.948 191.199 152.588 191.103 152.268C191.007 151.948 190.855 151.676 190.647 151.452C190.439 151.212 190.175 151.028 189.855 150.9C189.535 150.772 189.151 150.708 188.703 150.708C187.759 150.708 187.015 151.028 186.471 151.668C185.943 152.292 185.679 153.228 185.679 154.476V154.764H184.719V154.5C184.719 153.556 184.807 152.692 184.983 151.908C185.175 151.124 185.463 150.452 185.847 149.892C186.231 149.332 186.711 148.9 187.287 148.596C187.863 148.292 188.535 148.14 189.303 148.14C190.039 148.14 190.679 148.252 191.223 148.476C191.783 148.684 192.247 149.004 192.615 149.436C192.999 149.852 193.287 150.388 193.479 151.044C193.671 151.7 193.767 152.468 193.767 153.348Z" fill="#202526"/>
<path d="M105 186.5V172.5H107.4V186.5H105ZM111.5 181.3H105V179.1H111.28C111.933 179.1 112.473 179.053 112.9 178.96C113.327 178.867 113.667 178.727 113.92 178.54C114.173 178.353 114.347 178.127 114.44 177.86C114.547 177.58 114.6 177.26 114.6 176.9C114.6 176.527 114.547 176.207 114.44 175.94C114.347 175.66 114.173 175.433 113.92 175.26C113.667 175.073 113.327 174.933 112.9 174.84C112.473 174.747 111.933 174.7 111.28 174.7H105V172.5H111.3C112.353 172.5 113.247 172.593 113.98 172.78C114.713 172.967 115.313 173.247 115.78 173.62C116.247 173.98 116.58 174.433 116.78 174.98C116.993 175.527 117.1 176.167 117.1 176.9C117.1 177.62 116.993 178.253 116.78 178.8C116.58 179.347 116.253 179.807 115.8 180.18C115.36 180.553 114.78 180.833 114.06 181.02C113.353 181.207 112.5 181.3 111.5 181.3ZM111.42 179.5L116.92 186.5H113.98L108.48 179.5H111.42ZM128.323 181.78V182.18H126.083V181.1C126.083 180.58 126.009 180.133 125.863 179.76C125.729 179.373 125.536 179.067 125.283 178.84C125.029 178.6 124.723 178.427 124.363 178.32C124.003 178.2 123.603 178.14 123.163 178.14C122.736 178.14 122.343 178.213 121.983 178.36C121.636 178.507 121.329 178.72 121.063 179C120.796 179.267 120.589 179.613 120.443 180.04C120.296 180.453 120.223 180.94 120.223 181.5C120.223 182.127 120.296 182.653 120.443 183.08C120.589 183.507 120.796 183.853 121.063 184.12C121.343 184.387 121.676 184.573 122.063 184.68C122.463 184.787 122.916 184.84 123.423 184.84C123.809 184.84 124.169 184.793 124.503 184.7C124.836 184.607 125.116 184.48 125.343 184.32C125.583 184.16 125.769 183.973 125.903 183.76C126.036 183.547 126.103 183.32 126.103 183.08L128.203 183.1C128.203 184.207 127.796 185.1 126.983 185.78C126.169 186.46 124.983 186.8 123.423 186.8C121.529 186.8 120.123 186.353 119.203 185.46C118.283 184.567 117.823 183.24 117.823 181.48C117.823 179.787 118.269 178.487 119.163 177.58C120.069 176.66 121.363 176.2 123.043 176.2C124.936 176.2 126.289 176.673 127.103 177.62C127.916 178.553 128.323 179.94 128.323 181.78ZM118.903 182.18V180.48H127.403V182.18H118.903ZM139.922 174.04V175.86C139.602 175.673 139.242 175.533 138.842 175.44C138.455 175.347 138.082 175.3 137.722 175.3C137.549 175.3 137.355 175.327 137.142 175.38C136.942 175.42 136.755 175.493 136.582 175.6C136.409 175.707 136.262 175.853 136.142 176.04C136.022 176.227 135.962 176.46 135.962 176.74H135.062C135.062 176.313 135.122 175.913 135.242 175.54C135.362 175.153 135.535 174.82 135.762 174.54C136.002 174.247 136.289 174.02 136.622 173.86C136.969 173.687 137.369 173.6 137.822 173.6C138.222 173.6 138.602 173.647 138.962 173.74C139.322 173.833 139.642 173.933 139.922 174.04ZM129.722 179.7C129.722 178.527 130.129 177.653 130.942 177.08C131.755 176.493 132.989 176.2 134.642 176.2C136.295 176.2 137.529 176.493 138.342 177.08C139.169 177.653 139.582 178.527 139.582 179.7C139.582 180.873 139.189 181.753 138.402 182.34C137.615 182.913 136.395 183.2 134.742 183.2C133.089 183.2 131.835 182.913 130.982 182.34C130.142 181.753 129.722 180.873 129.722 179.7ZM132.122 179.68C132.122 180.24 132.355 180.64 132.822 180.88C133.289 181.12 133.922 181.24 134.722 181.24C135.562 181.24 136.182 181.12 136.582 180.88C136.982 180.64 137.182 180.24 137.182 179.68C137.182 179.133 136.962 178.74 136.522 178.5C136.095 178.26 135.462 178.14 134.622 178.14C134.155 178.14 133.762 178.173 133.442 178.24C133.122 178.293 132.862 178.387 132.662 178.52C132.475 178.64 132.335 178.8 132.242 179C132.162 179.187 132.122 179.413 132.122 179.68ZM134.722 181.8V183.2C134.149 183.2 133.655 183.207 133.242 183.22C132.842 183.22 132.509 183.24 132.242 183.28C131.989 183.32 131.802 183.38 131.682 183.46C131.575 183.54 131.522 183.647 131.522 183.78C131.522 183.9 131.575 184.007 131.682 184.1C131.802 184.18 131.995 184.253 132.262 184.32C132.529 184.373 132.882 184.427 133.322 184.48C133.762 184.533 134.309 184.593 134.962 184.66C135.695 184.74 136.375 184.82 137.002 184.9C137.629 184.967 138.169 185.1 138.622 185.3C139.089 185.487 139.449 185.767 139.702 186.14C139.969 186.5 140.102 187.013 140.102 187.68C140.102 188.72 139.682 189.48 138.842 189.96C138.015 190.453 136.762 190.7 135.082 190.7C134.109 190.7 133.269 190.627 132.562 190.48C131.855 190.347 131.275 190.127 130.822 189.82C130.382 189.527 130.055 189.147 129.842 188.68C129.629 188.213 129.522 187.653 129.522 187H131.622C131.622 187.667 131.922 188.12 132.522 188.36C133.135 188.613 134.009 188.74 135.142 188.74C135.595 188.74 136.009 188.72 136.382 188.68C136.755 188.653 137.069 188.6 137.322 188.52C137.589 188.44 137.789 188.327 137.922 188.18C138.069 188.033 138.142 187.853 138.142 187.64C138.142 187.4 138.069 187.22 137.922 187.1C137.775 186.993 137.549 186.913 137.242 186.86C136.949 186.82 136.582 186.787 136.142 186.76C135.715 186.747 135.215 186.707 134.642 186.64C134.055 186.573 133.462 186.507 132.862 186.44C132.262 186.373 131.715 186.253 131.222 186.08C130.742 185.907 130.342 185.66 130.022 185.34C129.715 185.02 129.562 184.573 129.562 184C129.562 183.453 129.709 183.033 130.002 182.74C130.309 182.447 130.702 182.227 131.182 182.08C131.675 181.933 132.229 181.853 132.842 181.84C133.455 181.813 134.082 181.8 134.722 181.8ZM141.499 176.5H143.799V181.88C143.799 182.307 143.839 182.693 143.919 183.04C143.999 183.373 144.139 183.66 144.339 183.9C144.539 184.14 144.806 184.327 145.139 184.46C145.486 184.58 145.926 184.64 146.459 184.64C147.406 184.64 148.126 184.38 148.619 183.86C149.113 183.327 149.359 182.54 149.359 181.5V181.26H150.159V181.5C150.159 182.287 150.086 183.007 149.939 183.66C149.793 184.3 149.546 184.853 149.199 185.32C148.866 185.787 148.419 186.153 147.859 186.42C147.313 186.673 146.633 186.8 145.819 186.8C145.099 186.8 144.466 186.713 143.919 186.54C143.386 186.367 142.939 186.093 142.579 185.72C142.219 185.333 141.946 184.84 141.759 184.24C141.586 183.64 141.499 182.913 141.499 182.06V176.5ZM149.359 176.5H151.659V186.5H149.359V176.5ZM155.952 186.5H153.652V171.5H155.952V186.5ZM165.309 183H165.589C165.589 183.507 165.556 183.993 165.489 184.46C165.423 184.913 165.263 185.313 165.009 185.66C164.756 186.007 164.369 186.287 163.849 186.5C163.343 186.7 162.643 186.8 161.749 186.8C161.109 186.8 160.523 186.753 159.989 186.66C159.456 186.567 158.989 186.4 158.589 186.16C158.203 185.92 157.896 185.6 157.669 185.2C157.456 184.787 157.349 184.273 157.349 183.66C157.349 183.153 157.443 182.72 157.629 182.36C157.829 182 158.116 181.7 158.489 181.46C158.863 181.207 159.323 181.007 159.869 180.86C160.416 180.7 161.043 180.587 161.749 180.52L165.949 180.1L166.149 181.74L162.089 182.14C161.769 182.18 161.463 182.233 161.169 182.3C160.889 182.367 160.643 182.46 160.429 182.58C160.229 182.687 160.063 182.827 159.929 183C159.809 183.173 159.749 183.38 159.749 183.62C159.749 183.807 159.789 183.98 159.869 184.14C159.949 184.287 160.083 184.413 160.269 184.52C160.456 184.627 160.696 184.707 160.989 184.76C161.283 184.813 161.643 184.84 162.069 184.84C162.669 184.84 163.176 184.78 163.589 184.66C164.003 184.54 164.336 184.387 164.589 184.2C164.843 184.013 165.023 183.813 165.129 183.6C165.249 183.387 165.309 183.187 165.309 183ZM165.289 180.12C165.289 179.667 165.203 179.313 165.029 179.06C164.856 178.793 164.636 178.593 164.369 178.46C164.103 178.327 163.809 178.24 163.489 178.2C163.169 178.16 162.876 178.14 162.609 178.14C162.316 178.14 162.016 178.16 161.709 178.2C161.416 178.227 161.136 178.3 160.869 178.42C160.616 178.54 160.409 178.72 160.249 178.96C160.089 179.2 160.009 179.533 160.009 179.96H157.909C157.909 179.28 158.016 178.707 158.229 178.24C158.443 177.76 158.756 177.367 159.169 177.06C159.583 176.753 160.076 176.533 160.649 176.4C161.236 176.267 161.889 176.2 162.609 176.2C163.449 176.2 164.176 176.273 164.789 176.42C165.416 176.553 165.936 176.787 166.349 177.12C166.763 177.453 167.069 177.893 167.269 178.44C167.483 178.987 167.589 179.66 167.589 180.46V186.5H165.289V180.12ZM171.695 186.5H169.395V176.5H171.695V186.5ZM178.435 180.54H176.335C176.335 180.207 176.295 179.907 176.215 179.64C176.135 179.373 176.008 179.147 175.835 178.96C175.661 178.76 175.441 178.607 175.175 178.5C174.908 178.393 174.588 178.34 174.215 178.34C173.428 178.34 172.808 178.607 172.355 179.14C171.915 179.66 171.695 180.44 171.695 181.48V181.72H170.895V181.5C170.895 180.713 170.968 179.993 171.115 179.34C171.275 178.687 171.515 178.127 171.835 177.66C172.155 177.193 172.555 176.833 173.035 176.58C173.515 176.327 174.075 176.2 174.715 176.2C175.328 176.2 175.861 176.293 176.315 176.48C176.781 176.653 177.168 176.92 177.475 177.28C177.795 177.627 178.035 178.073 178.195 178.62C178.355 179.167 178.435 179.807 178.435 180.54Z" fill="#202526"/>
<rect x="422" y="118" width="398" height="94" rx="16" fill="white"/>
<rect x="432" y="128" width="74" height="74" rx="10" fill="#E5EFED"/>
<path d="M444.2 183L455.96 155H460.16L448.4 183H444.2ZM448.6 177.76V174.16H467.4V177.76H448.6ZM471.88 183H467.68L455.96 155H460.16L471.88 183ZM488.174 176H488.734C488.734 176.987 488.667 177.947 488.534 178.88C488.4 179.787 488.067 180.6 487.534 181.32C487 182.013 486.2 182.573 485.134 183C484.094 183.4 482.654 183.6 480.814 183.6C479.48 183.6 478.267 183.507 477.174 183.32C476.08 183.133 475.147 182.8 474.374 182.32C473.6 181.84 472.987 181.213 472.534 180.44C472.107 179.64 471.894 178.64 471.894 177.44C471.894 176.453 472.08 175.6 472.454 174.88C472.854 174.16 473.427 173.547 474.174 173.04C474.947 172.507 475.907 172.08 477.054 171.76C478.2 171.44 479.534 171.2 481.054 171.04L489.134 170.16L489.534 172.96L481.414 173.8C480.667 173.88 479.96 174 479.294 174.16C478.627 174.32 478.027 174.547 477.494 174.84C476.987 175.107 476.574 175.453 476.254 175.88C475.96 176.28 475.814 176.773 475.814 177.36C475.814 177.813 475.894 178.227 476.054 178.6C476.24 178.947 476.534 179.253 476.934 179.52C477.36 179.76 477.92 179.96 478.614 180.12C479.307 180.253 480.174 180.32 481.214 180.32C482.574 180.32 483.694 180.173 484.574 179.88C485.48 179.587 486.2 179.227 486.734 178.8C487.267 178.347 487.64 177.867 487.854 177.36C488.067 176.853 488.174 176.4 488.174 176ZM488.134 170.2C488.134 169.133 487.934 168.307 487.534 167.72C487.16 167.107 486.68 166.653 486.094 166.36C485.507 166.067 484.854 165.88 484.134 165.8C483.44 165.72 482.8 165.68 482.214 165.68C481.547 165.68 480.88 165.72 480.214 165.8C479.547 165.853 478.934 166.027 478.374 166.32C477.814 166.587 477.347 167.013 476.974 167.6C476.627 168.16 476.454 168.933 476.454 169.92H472.974C472.974 168.587 473.187 167.453 473.614 166.52C474.04 165.56 474.654 164.773 475.454 164.16C476.254 163.547 477.214 163.107 478.334 162.84C479.48 162.547 480.76 162.4 482.174 162.4C483.8 162.4 485.214 162.56 486.414 162.88C487.64 163.173 488.654 163.653 489.454 164.32C490.254 164.96 490.854 165.8 491.254 166.84C491.68 167.88 491.894 169.147 491.894 170.64V183H488.134V170.2Z" fill="#202526"/>
<path d="M534.424 160.86C533.192 160.86 532.096 160.684 531.136 160.332C530.192 159.964 529.392 159.42 528.736 158.7C528.08 157.964 527.576 157.044 527.224 155.94C526.888 154.836 526.72 153.548 526.72 152.076C526.72 149.1 527.392 146.9 528.736 145.476C530.096 144.052 532.176 143.34 534.976 143.34C536.256 143.34 537.392 143.452 538.384 143.676C539.392 143.9 540.232 144.26 540.904 144.756C541.592 145.252 542.112 145.892 542.464 146.676C542.832 147.46 543.016 148.412 543.016 149.532H540.784C540.784 148.684 540.608 148.004 540.256 147.492C539.904 146.964 539.448 146.556 538.888 146.268C538.328 145.98 537.696 145.788 536.992 145.692C536.288 145.596 535.576 145.548 534.856 145.548C533.816 145.548 532.936 145.676 532.216 145.932C531.496 146.172 530.904 146.564 530.44 147.108C529.992 147.636 529.664 148.308 529.456 149.124C529.264 149.94 529.168 150.916 529.168 152.052C529.168 153.204 529.296 154.196 529.552 155.028C529.808 155.86 530.176 156.548 530.656 157.092C531.136 157.62 531.728 158.012 532.432 158.268C533.136 158.524 533.944 158.652 534.856 158.652C535.64 158.652 536.336 158.476 536.944 158.124C537.568 157.756 538.12 157.284 538.6 156.708C539.096 156.116 539.536 155.46 539.92 154.74C540.32 154.004 540.672 153.276 540.976 152.556L542.344 152.94C542.008 153.868 541.6 154.804 541.12 155.748C540.64 156.692 540.08 157.548 539.44 158.316C538.8 159.068 538.064 159.684 537.232 160.164C536.4 160.628 535.464 160.86 534.424 160.86ZM540.904 160.5V153.3H543.136V160.5H540.904ZM535.048 153.996V151.932H543.136V153.996H535.048ZM547.526 160.5H545.294V142.5H547.526V160.5ZM555.766 161.508L548.782 148.5H551.326L557.23 159.444L555.766 161.508ZM557.542 160.164C557.222 161.076 556.926 161.892 556.654 162.612C556.398 163.348 556.094 163.964 555.742 164.46C555.39 164.972 554.958 165.356 554.446 165.612C553.95 165.884 553.302 166.02 552.502 166.02C551.894 166.02 551.366 165.9 550.918 165.66C550.486 165.436 550.126 165.116 549.838 164.7C549.566 164.284 549.358 163.788 549.214 163.212C549.086 162.652 549.022 162.044 549.022 161.388H551.014C551.014 161.932 551.054 162.38 551.134 162.732C551.23 163.084 551.342 163.356 551.47 163.548C551.614 163.756 551.774 163.892 551.95 163.956C552.142 164.02 552.342 164.052 552.55 164.052C552.854 164.052 553.118 163.98 553.342 163.836C553.566 163.708 553.766 163.516 553.942 163.26C554.118 163.02 554.27 162.724 554.398 162.372C554.542 162.036 554.686 161.66 554.83 161.244L559.27 148.5H561.646L557.542 160.164ZM574.848 160.5H572.616V153.9C572.616 153.34 572.56 152.844 572.448 152.412C572.352 151.964 572.168 151.58 571.896 151.26C571.64 150.94 571.28 150.692 570.816 150.516C570.352 150.34 569.752 150.252 569.016 150.252C567.72 150.252 566.736 150.612 566.064 151.332C565.408 152.036 565.08 153.084 565.08 154.476V154.74H564.168V154.5C564.168 153.556 564.248 152.692 564.408 151.908C564.584 151.124 564.88 150.452 565.296 149.892C565.712 149.332 566.264 148.9 566.952 148.596C567.656 148.292 568.52 148.14 569.544 148.14C570.456 148.14 571.24 148.252 571.896 148.476C572.568 148.684 573.12 149.02 573.552 149.484C574 149.932 574.328 150.516 574.536 151.236C574.744 151.94 574.848 152.78 574.848 153.756V160.5ZM565.08 160.5H562.848V148.5H565.08V160.5ZM582.957 148.14C583.917 148.14 584.757 148.276 585.477 148.548C586.213 148.804 586.821 149.172 587.301 149.652C587.797 150.116 588.173 150.66 588.429 151.284C588.685 151.908 588.813 152.58 588.813 153.3H586.725C586.725 152.868 586.645 152.468 586.485 152.1C586.341 151.716 586.109 151.388 585.789 151.116C585.469 150.844 585.069 150.636 584.589 150.492C584.125 150.332 583.573 150.252 582.933 150.252C582.341 150.252 581.789 150.324 581.277 150.468C580.781 150.612 580.357 150.852 580.005 151.188C579.653 151.524 579.373 151.964 579.165 152.508C578.973 153.036 578.877 153.684 578.877 154.452C578.877 155.252 578.981 155.932 579.189 156.492C579.413 157.036 579.709 157.476 580.077 157.812C580.461 158.148 580.909 158.388 581.421 158.532C581.933 158.676 582.477 158.748 583.053 158.748C583.709 158.748 584.269 158.676 584.733 158.532C585.197 158.372 585.581 158.156 585.885 157.884C586.189 157.612 586.413 157.292 586.557 156.924C586.701 156.54 586.773 156.132 586.773 155.7H588.861C588.861 156.42 588.741 157.092 588.501 157.716C588.277 158.34 587.925 158.892 587.445 159.372C586.981 159.836 586.373 160.204 585.621 160.476C584.885 160.732 584.013 160.86 583.005 160.86C580.893 160.86 579.285 160.324 578.181 159.252C577.077 158.18 576.525 156.596 576.525 154.5C576.525 152.388 577.037 150.804 578.061 149.748C579.085 148.676 580.717 148.14 582.957 148.14ZM596.079 161.508L589.095 148.5H591.639L597.543 159.444L596.079 161.508ZM597.855 160.164C597.535 161.076 597.239 161.892 596.967 162.612C596.711 163.348 596.407 163.964 596.055 164.46C595.703 164.972 595.271 165.356 594.759 165.612C594.263 165.884 593.615 166.02 592.815 166.02C592.207 166.02 591.679 165.9 591.231 165.66C590.799 165.436 590.439 165.116 590.151 164.7C589.879 164.284 589.671 163.788 589.527 163.212C589.399 162.652 589.335 162.044 589.335 161.388H591.327C591.327 161.932 591.367 162.38 591.447 162.732C591.543 163.084 591.655 163.356 591.783 163.548C591.927 163.756 592.087 163.892 592.263 163.956C592.455 164.02 592.655 164.052 592.863 164.052C593.167 164.052 593.431 163.98 593.655 163.836C593.879 163.708 594.079 163.516 594.255 163.26C594.431 163.02 594.583 162.724 594.711 162.372C594.855 162.036 594.999 161.66 595.143 161.244L599.583 148.5H601.959L597.855 160.164ZM605.393 160.5H603.161V148.5H605.393V160.5ZM613.673 153.348H611.585C611.585 152.884 611.537 152.468 611.441 152.1C611.345 151.716 611.185 151.388 610.961 151.116C610.753 150.844 610.465 150.636 610.097 150.492C609.745 150.332 609.305 150.252 608.777 150.252C607.721 150.252 606.889 150.612 606.281 151.332C605.689 152.036 605.393 153.084 605.393 154.476V154.74H604.481V154.5C604.481 153.556 604.569 152.692 604.745 151.908C604.921 151.124 605.201 150.452 605.585 149.892C605.969 149.332 606.457 148.9 607.049 148.596C607.657 148.292 608.377 148.14 609.209 148.14C609.961 148.14 610.609 148.252 611.153 148.476C611.713 148.7 612.177 149.028 612.545 149.46C612.929 149.892 613.209 150.436 613.385 151.092C613.577 151.732 613.673 152.484 613.673 153.348Z" fill="#202526"/>
<path d="M527 186.5V172.5H528.94V186.5H527ZM533.52 181.04H527V179.24H533.28C533.973 179.24 534.553 179.187 535.02 179.08C535.487 178.973 535.86 178.82 536.14 178.62C536.42 178.407 536.62 178.147 536.74 177.84C536.873 177.533 536.94 177.173 536.94 176.76C536.94 176.347 536.873 175.987 536.74 175.68C536.62 175.373 536.42 175.12 536.14 174.92C535.86 174.72 535.487 174.567 535.02 174.46C534.553 174.353 533.973 174.3 533.28 174.3H527V172.5H533.26C534.273 172.5 535.14 172.593 535.86 172.78C536.58 172.953 537.167 173.22 537.62 173.58C538.087 173.94 538.427 174.387 538.64 174.92C538.853 175.44 538.96 176.053 538.96 176.76C538.96 177.467 538.853 178.087 538.64 178.62C538.44 179.153 538.12 179.6 537.68 179.96C537.24 180.32 536.673 180.593 535.98 180.78C535.3 180.953 534.48 181.04 533.52 181.04ZM533.12 179.5L538.72 186.5H536.32L530.72 179.5H533.12ZM550.009 181.68V182.08H548.149V181.22C548.149 180.607 548.069 180.087 547.909 179.66C547.749 179.22 547.523 178.867 547.229 178.6C546.949 178.333 546.603 178.14 546.189 178.02C545.789 177.9 545.343 177.84 544.849 177.84C544.369 177.84 543.929 177.92 543.529 178.08C543.129 178.227 542.776 178.453 542.469 178.76C542.163 179.067 541.923 179.447 541.749 179.9C541.589 180.353 541.509 180.887 541.509 181.5C541.509 182.18 541.589 182.753 541.749 183.22C541.923 183.687 542.163 184.067 542.469 184.36C542.776 184.653 543.149 184.86 543.589 184.98C544.043 185.1 544.556 185.16 545.129 185.16C545.583 185.16 545.989 185.107 546.349 185C546.723 184.893 547.043 184.747 547.309 184.56C547.576 184.36 547.783 184.14 547.929 183.9C548.089 183.647 548.169 183.373 548.169 183.08L549.889 183.1C549.889 184.207 549.483 185.1 548.669 185.78C547.856 186.46 546.676 186.8 545.129 186.8C543.236 186.8 541.829 186.353 540.909 185.46C540.003 184.567 539.549 183.24 539.549 181.48C539.549 179.787 539.996 178.487 540.889 177.58C541.783 176.66 543.069 176.2 544.749 176.2C546.643 176.2 547.989 176.667 548.789 177.6C549.603 178.533 550.009 179.893 550.009 181.68ZM540.489 182.08V180.62H549.089V182.08H540.489ZM561.549 174.08V175.64C561.229 175.453 560.869 175.313 560.469 175.22C560.083 175.113 559.709 175.06 559.349 175.06C559.176 175.06 558.983 175.087 558.769 175.14C558.569 175.193 558.376 175.287 558.189 175.42C558.016 175.54 557.869 175.707 557.749 175.92C557.643 176.133 557.589 176.407 557.589 176.74H556.709C556.709 176.313 556.769 175.907 556.889 175.52C557.009 175.133 557.183 174.8 557.409 174.52C557.636 174.24 557.916 174.02 558.249 173.86C558.583 173.687 558.969 173.6 559.409 173.6C559.823 173.6 560.209 173.653 560.569 173.76C560.929 173.853 561.256 173.96 561.549 174.08ZM551.389 179.7C551.389 178.527 551.789 177.653 552.589 177.08C553.403 176.493 554.629 176.2 556.269 176.2C557.909 176.2 559.136 176.493 559.949 177.08C560.763 177.653 561.169 178.527 561.169 179.7C561.169 180.873 560.783 181.753 560.009 182.34C559.249 182.913 558.049 183.2 556.409 183.2C554.769 183.2 553.523 182.913 552.669 182.34C551.816 181.753 551.389 180.873 551.389 179.7ZM553.349 179.68C553.349 180.347 553.623 180.827 554.169 181.12C554.716 181.413 555.449 181.56 556.369 181.56C557.343 181.56 558.056 181.413 558.509 181.12C558.976 180.827 559.209 180.347 559.209 179.68C559.209 179.027 558.956 178.56 558.449 178.28C557.943 177.987 557.209 177.84 556.249 177.84C555.703 177.84 555.243 177.873 554.869 177.94C554.509 178.007 554.216 178.12 553.989 178.28C553.763 178.427 553.596 178.62 553.489 178.86C553.396 179.087 553.349 179.36 553.349 179.68ZM556.369 181.94V183.2C555.769 183.2 555.249 183.207 554.809 183.22C554.369 183.233 554.003 183.26 553.709 183.3C553.429 183.34 553.223 183.407 553.089 183.5C552.956 183.593 552.889 183.72 552.889 183.88C552.889 184.013 552.949 184.127 553.069 184.22C553.189 184.313 553.396 184.4 553.689 184.48C553.983 184.547 554.363 184.607 554.829 184.66C555.309 184.713 555.896 184.773 556.589 184.84C557.323 184.92 558.003 184.993 558.629 185.06C559.256 185.127 559.796 185.253 560.249 185.44C560.703 185.613 561.056 185.88 561.309 186.24C561.563 186.587 561.689 187.087 561.689 187.74C561.689 188.767 561.276 189.513 560.449 189.98C559.636 190.46 558.389 190.7 556.709 190.7C555.736 190.7 554.896 190.627 554.189 190.48C553.496 190.347 552.929 190.127 552.489 189.82C552.049 189.527 551.723 189.147 551.509 188.68C551.309 188.213 551.209 187.653 551.209 187H552.949C552.949 187.787 553.263 188.327 553.889 188.62C554.529 188.913 555.456 189.06 556.669 189.06C557.176 189.06 557.636 189.04 558.049 189C558.463 188.973 558.816 188.907 559.109 188.8C559.416 188.707 559.649 188.567 559.809 188.38C559.969 188.207 560.049 187.987 560.049 187.72C560.049 187.427 559.969 187.207 559.809 187.06C559.649 186.927 559.409 186.833 559.089 186.78C558.769 186.727 558.369 186.687 557.889 186.66C557.423 186.647 556.883 186.6 556.269 186.52C555.683 186.453 555.089 186.387 554.489 186.32C553.903 186.253 553.369 186.147 552.889 186C552.409 185.84 552.016 185.613 551.709 185.32C551.403 185.013 551.249 184.593 551.249 184.06C551.249 183.527 551.389 183.12 551.669 182.84C551.963 182.56 552.349 182.353 552.829 182.22C553.309 182.073 553.856 181.993 554.469 181.98C555.096 181.953 555.729 181.94 556.369 181.94ZM563.089 176.5H564.949V182C564.949 182.467 564.989 182.887 565.069 183.26C565.162 183.62 565.322 183.933 565.549 184.2C565.776 184.467 566.076 184.673 566.449 184.82C566.836 184.967 567.336 185.04 567.949 185.04C569.029 185.04 569.842 184.747 570.389 184.16C570.949 183.56 571.229 182.68 571.229 181.52V181.3H571.989V181.5C571.989 182.287 571.916 183.007 571.769 183.66C571.636 184.313 571.396 184.873 571.049 185.34C570.702 185.807 570.236 186.167 569.649 186.42C569.076 186.673 568.362 186.8 567.509 186.8C566.749 186.8 566.089 186.707 565.529 186.52C564.982 186.347 564.522 186.067 564.149 185.68C563.789 185.293 563.522 184.807 563.349 184.22C563.176 183.633 563.089 182.933 563.089 182.12V176.5ZM571.229 176.5H573.089V186.5H571.229V176.5ZM576.946 186.5H575.086V171.5H576.946V186.5ZM586.493 183H586.773C586.773 183.493 586.74 183.973 586.673 184.44C586.606 184.893 586.44 185.3 586.173 185.66C585.906 186.007 585.506 186.287 584.973 186.5C584.453 186.7 583.733 186.8 582.813 186.8C582.146 186.8 581.54 186.753 580.993 186.66C580.446 186.567 579.98 186.4 579.593 186.16C579.206 185.92 578.9 185.607 578.673 185.22C578.46 184.82 578.353 184.32 578.353 183.72C578.353 183.227 578.446 182.8 578.633 182.44C578.833 182.08 579.12 181.773 579.493 181.52C579.88 181.253 580.36 181.04 580.933 180.88C581.506 180.72 582.173 180.6 582.933 180.52L586.973 180.08L587.173 181.48L583.113 181.9C582.74 181.94 582.386 182 582.053 182.08C581.72 182.16 581.42 182.273 581.153 182.42C580.9 182.553 580.693 182.727 580.533 182.94C580.386 183.14 580.313 183.387 580.313 183.68C580.313 183.907 580.353 184.113 580.433 184.3C580.526 184.473 580.673 184.627 580.873 184.76C581.086 184.88 581.366 184.98 581.713 185.06C582.06 185.127 582.493 185.16 583.013 185.16C583.693 185.16 584.253 185.087 584.693 184.94C585.146 184.793 585.506 184.613 585.773 184.4C586.04 184.173 586.226 183.933 586.333 183.68C586.44 183.427 586.493 183.2 586.493 183ZM586.473 180.1C586.473 179.567 586.373 179.153 586.173 178.86C585.986 178.553 585.746 178.327 585.453 178.18C585.16 178.033 584.833 177.94 584.473 177.9C584.126 177.86 583.806 177.84 583.513 177.84C583.18 177.84 582.846 177.86 582.513 177.9C582.18 177.927 581.873 178.013 581.593 178.16C581.313 178.293 581.08 178.507 580.893 178.8C580.72 179.08 580.633 179.467 580.633 179.96H578.893C578.893 179.293 579 178.727 579.213 178.26C579.426 177.78 579.733 177.387 580.133 177.08C580.533 176.773 581.013 176.553 581.573 176.42C582.146 176.273 582.786 176.2 583.493 176.2C584.306 176.2 585.013 176.28 585.613 176.44C586.226 176.587 586.733 176.827 587.133 177.16C587.533 177.48 587.833 177.9 588.033 178.42C588.246 178.94 588.353 179.573 588.353 180.32V186.5H586.473V180.1ZM592.005 186.5H590.145V176.5H592.005V186.5ZM598.905 180.54H597.165C597.165 180.153 597.125 179.807 597.045 179.5C596.965 179.18 596.831 178.907 596.645 178.68C596.471 178.453 596.231 178.28 595.925 178.16C595.631 178.027 595.265 177.96 594.825 177.96C593.945 177.96 593.251 178.26 592.745 178.86C592.251 179.447 592.005 180.32 592.005 181.48V181.7H591.245V181.5C591.245 180.713 591.318 179.993 591.465 179.34C591.611 178.687 591.845 178.127 592.165 177.66C592.485 177.193 592.891 176.833 593.385 176.58C593.891 176.327 594.491 176.2 595.185 176.2C595.811 176.2 596.351 176.293 596.805 176.48C597.271 176.667 597.658 176.94 597.965 177.3C598.285 177.66 598.518 178.113 598.665 178.66C598.825 179.193 598.905 179.82 598.905 180.54Z" fill="#202526"/>
</svg>
